<svg width="22" height="22" viewBox="0 0 22 22" fill="none" xmlns="http://www.w3.org/2000/svg">
<path d="M20.333 9.66634H12.333V1.66634C12.333 1.31272 12.1925 0.973581 11.9425 0.723532C11.6924 0.473484 11.3533 0.333008 10.9997 0.333008C10.6461 0.333008 10.3069 0.473484 10.0569 0.723532C9.80682 0.973581 9.66634 1.31272 9.66634 1.66634V9.66634H1.66634C1.31272 9.66634 0.973581 9.80682 0.723532 10.0569C0.473484 10.3069 0.333008 10.6461 0.333008 10.9997C0.333008 11.3533 0.473484 11.6924 0.723532 11.9425C0.973581 12.1925 1.31272 12.333 1.66634 12.333H9.66634V20.333C9.66634 20.6866 9.80682 21.0258 10.0569 21.2758C10.3069 21.5259 10.6461 21.6663 10.9997 21.6663C11.3533 21.6663 11.6924 21.5259 11.9425 21.2758C12.1925 21.0258 12.333 20.6866 12.333 20.333V12.333H20.333C20.6866 12.333 21.0258 12.1925 21.2758 11.9425C21.5259 11.6924 21.6663 11.3533 21.6663 10.9997C21.6663 10.6461 21.5259 10.3069 21.2758 10.0569C21.0258 9.80682 20.6866 9.66634 20.333 9.66634Z" fill="#6DF1B2"/>
</svg>
