<svg width="18" height="18" viewBox="0 0 18 18" fill="none" xmlns="http://www.w3.org/2000/svg">
  <path
    d="M11.55 9.22C12.0836 8.75813 12.5115 8.18688 12.8049 7.54502C13.0982 6.90316 13.25 6.20571 13.25 5.5C13.25 4.17392 12.7232 2.90215 11.7855 1.96447C10.8478 1.02678 9.57607 0.5 8.24999 0.5C6.92391 0.5 5.65214 1.02678 4.71445 1.96447C3.77677 2.90215 3.24999 4.17392 3.24999 5.5C3.25616 6.20958 3.41576 6.90944 3.71782 7.55154C4.01989 8.19365 4.45728 8.76282 4.99999 9.22C3.60013 9.85388 2.41245 10.8775 1.57897 12.1685C0.745483 13.4596 0.30146 14.9633 0.299988 16.5C0.299988 16.7652 0.405345 17.0196 0.592881 17.2071C0.780417 17.3946 1.03477 17.5 1.29999 17.5C1.5652 17.5 1.81956 17.3946 2.00709 17.2071C2.19463 17.0196 2.29999 16.7652 2.29999 16.5C2.29999 14.9087 2.93213 13.3826 4.05735 12.2574C5.18257 11.1321 6.70869 10.5 8.29999 10.5C9.89129 10.5 11.4174 11.1321 12.5426 12.2574C13.6678 13.3826 14.3 14.9087 14.3 16.5C14.3 16.7652 14.4053 17.0196 14.5929 17.2071C14.7804 17.3946 15.0348 17.5 15.3 17.5C15.5652 17.5 15.8196 17.3946 16.0071 17.2071C16.1946 17.0196 16.3 16.7652 16.3 16.5C16.2942 14.9578 15.8427 13.4502 15 12.1586C14.1573 10.867 12.9592 9.84651 11.55 9.22ZM8.24999 8.5C7.65664 8.5 7.07662 8.32405 6.58328 7.99441C6.08993 7.66476 5.70541 7.19623 5.47835 6.64805C5.25129 6.09987 5.19188 5.49667 5.30763 4.91473C5.42339 4.33279 5.70911 3.79824 6.12867 3.37868C6.54822 2.95912 7.08277 2.6734 7.66472 2.55764C8.24666 2.44189 8.84986 2.5013 9.39804 2.72836C9.94622 2.95542 10.4148 3.33994 10.7444 3.83329C11.074 4.32664 11.25 4.90666 11.25 5.5C11.25 6.29565 10.9339 7.05871 10.3713 7.62132C9.8087 8.18393 9.04564 8.5 8.24999 8.5ZM16.75 3.5C16.4848 3.5 16.2304 3.60536 16.0429 3.79289C15.8553 3.98043 15.75 4.23478 15.75 4.5V6.5C15.75 6.76522 15.8553 7.01957 16.0429 7.20711C16.2304 7.39464 16.4848 7.5 16.75 7.5C17.0152 7.5 17.2696 7.39464 17.4571 7.20711C17.6446 7.01957 17.75 6.76522 17.75 6.5V4.5C17.75 4.23478 17.6446 3.98043 17.4571 3.79289C17.2696 3.60536 17.0152 3.5 16.75 3.5ZM16 8.79C15.8173 8.98163 15.7137 9.23523 15.71 9.5C15.7092 9.63161 15.7345 9.76207 15.7842 9.88391C15.834 10.0057 15.9073 10.1166 16 10.21C16.0972 10.2983 16.2088 10.3694 16.33 10.42C16.4497 10.4729 16.5791 10.5002 16.71 10.5002C16.8409 10.5002 16.9703 10.4729 17.09 10.42C17.2141 10.3751 17.3268 10.3034 17.4201 10.2101C17.5134 10.1168 17.5851 10.0041 17.63 9.88C17.686 9.76132 17.7134 9.63118 17.71 9.5C17.7111 9.30138 17.6531 9.10691 17.5433 8.94139C17.4335 8.77587 17.2769 8.6468 17.0935 8.57063C16.91 8.49446 16.7081 8.47465 16.5133 8.51372C16.3186 8.55279 16.1399 8.64897 16 8.79Z"/>
</svg>
