<svg width="16" height="16" viewBox="0 0 16 16" fill="none" xmlns="http://www.w3.org/2000/svg">
<g clip-path="url(#clip0_24957_2627)">
<path d="M8.0263 10.5793C7.89445 10.5793 7.76556 10.6184 7.65592 10.6916C7.54629 10.7649 7.46084 10.869 7.41038 10.9908C7.35993 11.1126 7.34672 11.2467 7.37245 11.376C7.39817 11.5053 7.46167 11.6241 7.5549 11.7174C7.64814 11.8106 7.76692 11.8741 7.89624 11.8998C8.02557 11.9255 8.15961 11.9123 8.28143 11.8619C8.40324 11.8114 8.50736 11.726 8.58062 11.6163C8.65387 11.5067 8.69297 11.3778 8.69297 11.2459C8.69297 11.0691 8.62273 10.8996 8.49771 10.7745C8.37268 10.6495 8.20312 10.5793 8.0263 10.5793ZM15.1396 11.5593L9.77297 2.22595C9.59951 1.91496 9.34616 1.65592 9.0391 1.4756C8.73204 1.29527 8.3824 1.2002 8.0263 1.2002C7.67021 1.2002 7.32057 1.29527 7.01351 1.4756C6.70645 1.65592 6.4531 1.91496 6.27964 2.22595L0.946305 11.5593C0.766835 11.862 0.6704 12.2066 0.666735 12.5585C0.663069 12.9104 0.752304 13.257 0.925429 13.5633C1.09855 13.8697 1.34944 14.1249 1.65276 14.3033C1.95608 14.4817 2.30109 14.5769 2.65297 14.5793H13.3996C13.7543 14.5828 14.1036 14.4919 14.4116 14.3159C14.7196 14.1399 14.9752 13.8852 15.1523 13.5778C15.3294 13.2705 15.4215 12.9216 15.4193 12.5668C15.4171 12.2121 15.3206 11.8644 15.1396 11.5593ZM13.9863 12.8926C13.9279 12.9966 13.8426 13.083 13.7394 13.1428C13.6362 13.2026 13.5189 13.2336 13.3996 13.2326H2.65297C2.53371 13.2336 2.41637 13.2026 2.31318 13.1428C2.21 13.083 2.12474 12.9966 2.0663 12.8926C2.00779 12.7913 1.97699 12.6763 1.97699 12.5593C1.97699 12.4423 2.00779 12.3273 2.0663 12.2259L7.39964 2.89262C7.45558 2.78341 7.54058 2.69177 7.64527 2.62778C7.74996 2.56378 7.87027 2.52992 7.99297 2.52992C8.11567 2.52992 8.23599 2.56378 8.34067 2.62778C8.44536 2.69177 8.53036 2.78341 8.5863 2.89262L13.953 12.2259C14.0191 12.3258 14.0571 12.4417 14.063 12.5614C14.0689 12.681 14.0424 12.8001 13.9863 12.9059V12.8926ZM8.0263 5.24595C7.84949 5.24595 7.67992 5.31619 7.5549 5.44121C7.42988 5.56624 7.35964 5.7358 7.35964 5.91262V8.57928C7.35964 8.75609 7.42988 8.92566 7.5549 9.05069C7.67992 9.17571 7.84949 9.24595 8.0263 9.24595C8.20312 9.24595 8.37268 9.17571 8.49771 9.05069C8.62273 8.92566 8.69297 8.75609 8.69297 8.57928V5.91262C8.69297 5.7358 8.62273 5.56624 8.49771 5.44121C8.37268 5.31619 8.20312 5.24595 8.0263 5.24595Z" fill="#EFF16D"/>
</g>
<defs>
<clipPath id="clip0_24957_2627">
<rect width="16" height="16" fill="white"/>
</clipPath>
</defs>
</svg>
