<svg width="28" height="20" viewBox="0 0 28 20" fill="none" xmlns="http://www.w3.org/2000/svg">
<path d="M26.9465 6.38659L21.6132 1.05326C21.4889 0.928937 21.3413 0.830323 21.1789 0.763042C21.0164 0.695762 20.8423 0.661133 20.6665 0.661133C20.3115 0.661133 19.9709 0.802183 19.7199 1.05326C19.4688 1.30433 19.3277 1.64485 19.3277 1.99992C19.3277 2.35499 19.4688 2.69552 19.7199 2.94659L22.7865 5.99992H7.33319C6.97957 5.99992 6.64043 6.1404 6.39038 6.39045C6.14034 6.64049 5.99986 6.97963 5.99986 7.33325C5.99986 7.68688 6.14034 8.02601 6.39038 8.27606C6.64043 8.52611 6.97957 8.66659 7.33319 8.66659H25.9999C26.2631 8.66527 26.52 8.58607 26.7383 8.43896C26.9566 8.29185 27.1265 8.08341 27.2265 7.83992C27.3286 7.59711 27.3565 7.32949 27.3067 7.07084C27.2569 6.81218 27.1315 6.57409 26.9465 6.38659V6.38659ZM20.6665 11.3333H1.99986C1.73663 11.3346 1.47967 11.4138 1.26138 11.5609C1.04308 11.708 0.873221 11.9164 0.773194 12.1599C0.671088 12.4027 0.643191 12.6704 0.693023 12.929C0.742855 13.1877 0.868184 13.4258 1.05319 13.6133L6.38653 18.9466C6.51048 19.0716 6.65795 19.1708 6.82042 19.2384C6.9829 19.3061 7.15718 19.341 7.33319 19.341C7.50921 19.341 7.68348 19.3061 7.84596 19.2384C8.00844 19.1708 8.15591 19.0716 8.27986 18.9466C8.40483 18.8226 8.50402 18.6752 8.57172 18.5127C8.63941 18.3502 8.67426 18.1759 8.67426 17.9999C8.67426 17.8239 8.63941 17.6496 8.57172 17.4872C8.50402 17.3247 8.40483 17.1772 8.27986 17.0533L5.21319 13.9999H20.6665C21.0201 13.9999 21.3593 13.8594 21.6093 13.6094C21.8594 13.3593 21.9999 13.0202 21.9999 12.6666C21.9999 12.313 21.8594 11.9738 21.6093 11.7238C21.3593 11.4737 21.0201 11.3333 20.6665 11.3333Z" fill="#6DF1B2"/>
</svg>
