<svg width="32" height="32" viewBox="0 0 32 32" fill="none" xmlns="http://www.w3.org/2000/svg">
<path d="M23.893 8.82642C23.7577 8.50062 23.4988 8.24172 23.173 8.10642C23.0127 8.0381 22.8406 8.00186 22.6663 7.99976H9.33301C8.97939 7.99976 8.64025 8.14023 8.3902 8.39028C8.14015 8.64033 7.99967 8.97947 7.99967 9.33309C7.99967 9.68671 8.14015 10.0258 8.3902 10.2759C8.64025 10.5259 8.97939 10.6664 9.33301 10.6664H19.453L8.38634 21.7198C8.26137 21.8437 8.16218 21.9912 8.09449 22.1537C8.02679 22.3161 7.99194 22.4904 7.99194 22.6664C7.99194 22.8424 8.02679 23.0167 8.09449 23.1792C8.16218 23.3417 8.26137 23.4891 8.38634 23.6131C8.51029 23.7381 8.65776 23.8373 8.82024 23.9049C8.98272 23.9726 9.15699 24.0075 9.33301 24.0075C9.50902 24.0075 9.6833 23.9726 9.84578 23.9049C10.0083 23.8373 10.1557 23.7381 10.2797 23.6131L21.333 12.5464V22.6664C21.333 23.02 21.4735 23.3592 21.7235 23.6092C21.9736 23.8593 22.3127 23.9998 22.6663 23.9998C23.02 23.9998 23.3591 23.8593 23.6092 23.6092C23.8592 23.3592 23.9997 23.02 23.9997 22.6664V9.33309C23.9976 9.15885 23.9613 8.98672 23.893 8.82642Z" fill="url(#paint0_linear_1669_7678)"/>
<defs>
<linearGradient id="paint0_linear_1669_7678" x1="15.9958" y1="7.99976" x2="15.9958" y2="24.0075" gradientUnits="userSpaceOnUse">
<stop stop-color="#6DF1B2"/>
<stop offset="1" stop-color="#1CC5F9"/>
</linearGradient>
</defs>
</svg>
