<svg width="32" height="32" viewBox="0 0 32 32" fill="none" xmlns="http://www.w3.org/2000/svg">
<g clip-path="url(#clip0_37858_42671)">
<path d="M32 16C32 24.8365 24.8365 32 16 32C7.1635 32 0 24.8365 0 16C0 16.0037 16 0.0018125 16 0C24.8365 0 32 7.1635 32 16Z" fill="#0052B4"/>
<path d="M15.9998 0C15.9989 0 15.9979 0.00133333 15.9971 0.00133333L15.9998 0Z" fill="#F0F0F0"/>
<path d="M15.957 15.9998H15.9998C15.9998 15.9853 15.9998 15.9715 15.9998 15.957C15.9856 15.9713 15.9713 15.9856 15.957 15.9998Z" fill="#F0F0F0"/>
<path d="M16 8.34781C16 5.5325 16 3.68769 16 0H15.9973C7.162 0.0014375 0 7.16425 0 15.9999H8.34781V11.2992L13.0486 15.9999H15.9572C15.9716 15.9857 15.9858 15.9714 16.0001 15.9571C16.0001 14.8792 16.0001 13.9174 16.0001 13.0486L11.2992 8.34781H16Z" fill="#F0F0F0"/>
<path d="M8.09466 2.08691C5.59223 3.51185 3.51185 5.59223 2.08691 8.09466V16H6.26085V6.26091V6.26085H16C16 4.94441 16 3.69029 16 2.08691H8.09466Z" fill="#D80027"/>
<path d="M15.9998 14.0322L10.3152 8.34768H8.34766C8.34766 8.34762 8.34766 8.34768 8.34766 8.34768L15.9997 15.9997H15.9998C15.9998 15.9997 15.9998 14.6432 15.9998 14.0322Z" fill="#D80027"/>
<path d="M9.64972 18.7822L10.5278 20.6184L12.5108 20.16L11.6228 21.9914L13.2174 23.256L11.232 23.7035L11.2375 25.7387L9.64972 24.4654L8.06197 25.7387L8.06753 23.7035L6.08203 23.256L7.67672 21.9914L6.78859 20.16L8.77166 20.6184L9.64972 18.7822Z" fill="#F0F0F0"/>
<path d="M23.9552 22.2607L24.3943 23.1788L25.3858 22.9496L24.9417 23.8653L25.7391 24.4976L24.7463 24.7214L24.7491 25.739L23.9552 25.1023L23.1613 25.739L23.1641 24.7214L22.1714 24.4976L22.9687 23.8653L22.5247 22.9496L23.5161 23.1788L23.9552 22.2607Z" fill="#F0F0F0"/>
<path d="M19.8708 12.5215L20.3098 13.4396L21.3013 13.2104L20.8573 14.126L21.6546 14.7584L20.6619 14.9821L20.6646 15.9997L19.8708 15.363L19.0769 15.9997L19.0796 14.9821L18.0869 14.7584L18.8842 14.126L18.4402 13.2104L19.4317 13.4396L19.8708 12.5215Z" fill="#F0F0F0"/>
<path d="M23.9552 6.95605L24.3943 7.87418L25.3858 7.64499L24.9418 8.56068L25.739 9.19293L24.7463 9.41674L24.7491 10.4344L23.9552 9.79768L23.1613 10.4344L23.1641 9.41674L22.1714 9.19293L22.9686 8.56068L22.5247 7.64499L23.5161 7.87418L23.9552 6.95605Z" fill="#F0F0F0"/>
<path d="M27.5231 11.1299L27.9621 12.048L28.9536 11.8188L28.5096 12.7344L29.3069 13.3668L28.3142 13.5906L28.3169 14.6081L27.5231 13.9715L26.7293 14.6081L26.7319 13.5906L25.7393 13.3668L26.5366 12.7344L26.0926 11.8188L27.084 12.048L27.5231 11.1299Z" fill="#F0F0F0"/>
<path d="M24.9717 16L25.317 17.0629H26.4347L25.5305 17.7198L25.8759 18.7826L24.9717 18.1257L24.0676 18.7826L24.4129 17.7198L23.5088 17.0629H24.6264L24.9717 16Z" fill="#F0F0F0"/>
</g>
<defs>
<clipPath id="clip0_37858_42671">
<rect width="32" height="32" fill="white"/>
</clipPath>
</defs>
</svg>
