<svg width="32" height="32" viewBox="0 0 32 32" fill="none" xmlns="http://www.w3.org/2000/svg">
<path d="M25.3333 8.00024H21.3333V6.66691C21.3333 5.95967 21.0523 5.28139 20.5522 4.78129C20.0521 4.2812 19.3739 4.00024 18.6666 4.00024H13.3333C12.626 4.00024 11.9478 4.2812 11.4477 4.78129C10.9476 5.28139 10.6666 5.95967 10.6666 6.66691V8.00024H6.66663C5.60576 8.00024 4.58834 8.42167 3.8382 9.17182C3.08805 9.92196 2.66663 10.9394 2.66663 12.0002V24.0002C2.66663 25.0611 3.08805 26.0785 3.8382 26.8287C4.58834 27.5788 5.60576 28.0002 6.66663 28.0002H25.3333C26.3942 28.0002 27.4116 27.5788 28.1617 26.8287C28.9119 26.0785 29.3333 25.0611 29.3333 24.0002V12.0002C29.3333 10.9394 28.9119 9.92196 28.1617 9.17182C27.4116 8.42167 26.3942 8.00024 25.3333 8.00024ZM13.3333 6.66691H18.6666V8.00024H13.3333V6.66691ZM26.6666 24.0002C26.6666 24.3539 26.5261 24.693 26.2761 24.9431C26.0261 25.1931 25.6869 25.3336 25.3333 25.3336H6.66663C6.313 25.3336 5.97387 25.1931 5.72382 24.9431C5.47377 24.693 5.33329 24.3539 5.33329 24.0002V16.5202L11.5733 18.6669C11.7149 18.6861 11.8584 18.6861 12 18.6669H20C20.1446 18.6642 20.2881 18.6418 20.4266 18.6002L26.6666 16.5202V24.0002ZM26.6666 13.7069L19.7866 16.0002H12.2133L5.33329 13.7069V12.0002C5.33329 11.6466 5.47377 11.3075 5.72382 11.0574C5.97387 10.8074 6.313 10.6669 6.66663 10.6669H25.3333C25.6869 10.6669 26.0261 10.8074 26.2761 11.0574C26.5261 11.3075 26.6666 11.6466 26.6666 12.0002V13.7069Z" fill="url(#paint0_linear_1669_7638)"/>
<defs>
<linearGradient id="paint0_linear_1669_7638" x1="16" y1="4.00024" x2="16" y2="28.0002" gradientUnits="userSpaceOnUse">
<stop stop-color="#6DF1B2"/>
<stop offset="1" stop-color="#1CC5F9"/>
</linearGradient>
</defs>
</svg>
