<svg width="28" height="28" viewBox="0 0 28 28" fill="none" xmlns="http://www.w3.org/2000/svg">
<path d="M11.3333 15.3332H1.99996C1.64634 15.3332 1.3072 15.4736 1.05715 15.7237C0.807102 15.9737 0.666626 16.3129 0.666626 16.6665V25.9998C0.666626 26.3535 0.807102 26.6926 1.05715 26.9426C1.3072 27.1927 1.64634 27.3332 1.99996 27.3332H11.3333C11.6869 27.3332 12.0261 27.1927 12.2761 26.9426C12.5261 26.6926 12.6666 26.3535 12.6666 25.9998V16.6665C12.6666 16.3129 12.5261 15.9737 12.2761 15.7237C12.0261 15.4736 11.6869 15.3332 11.3333 15.3332ZM9.99996 24.6665H3.33329V17.9998H9.99996V24.6665ZM26 0.666504H16.6666C16.313 0.666504 15.9739 0.80698 15.7238 1.05703C15.4738 1.30708 15.3333 1.64622 15.3333 1.99984V11.3332C15.3333 11.6868 15.4738 12.0259 15.7238 12.276C15.9739 12.526 16.313 12.6665 16.6666 12.6665H26C26.3536 12.6665 26.6927 12.526 26.9428 12.276C27.1928 12.0259 27.3333 11.6868 27.3333 11.3332V1.99984C27.3333 1.64622 27.1928 1.30708 26.9428 1.05703C26.6927 0.80698 26.3536 0.666504 26 0.666504ZM24.6666 9.99984H18V3.33317H24.6666V9.99984ZM26 15.3332H16.6666C16.313 15.3332 15.9739 15.4736 15.7238 15.7237C15.4738 15.9737 15.3333 16.3129 15.3333 16.6665V25.9998C15.3333 26.3535 15.4738 26.6926 15.7238 26.9426C15.9739 27.1927 16.313 27.3332 16.6666 27.3332H26C26.3536 27.3332 26.6927 27.1927 26.9428 26.9426C27.1928 26.6926 27.3333 26.3535 27.3333 25.9998V16.6665C27.3333 16.3129 27.1928 15.9737 26.9428 15.7237C26.6927 15.4736 26.3536 15.3332 26 15.3332ZM24.6666 24.6665H18V17.9998H24.6666V24.6665ZM11.3333 0.666504H1.99996C1.64634 0.666504 1.3072 0.80698 1.05715 1.05703C0.807102 1.30708 0.666626 1.64622 0.666626 1.99984V11.3332C0.666626 11.6868 0.807102 12.0259 1.05715 12.276C1.3072 12.526 1.64634 12.6665 1.99996 12.6665H11.3333C11.6869 12.6665 12.0261 12.526 12.2761 12.276C12.5261 12.0259 12.6666 11.6868 12.6666 11.3332V1.99984C12.6666 1.64622 12.5261 1.30708 12.2761 1.05703C12.0261 0.80698 11.6869 0.666504 11.3333 0.666504ZM9.99996 9.99984H3.33329V3.33317H9.99996V9.99984Z" fill="url(#paint0_linear_7851_1591)"/>
<defs>
<linearGradient id="paint0_linear_7851_1591" x1="14" y1="0.666504" x2="14" y2="27.3332" gradientUnits="userSpaceOnUse">
<stop stop-color="#6DF1B2"/>
<stop offset="1" stop-color="#1CC5F9"/>
</linearGradient>
</defs>
</svg>
