<svg width="12" height="20" viewBox="0 0 12 20" fill="none" xmlns="http://www.w3.org/2000/svg">
  <path id="Vector"
        d="M1 9.00002H11C11.2652 9.00002 11.5196 8.89466 11.7071 8.70712C11.8946 8.51959 12 8.26523 12 8.00002C12 7.7348 11.8946 7.48045 11.7071 7.29291C11.5196 7.10538 11.2652 7.00002 11 7.00002H7V3.41002L7.79 4.21002C7.88296 4.30375 7.99356 4.37814 8.11542 4.42891C8.23728 4.47968 8.36799 4.50582 8.5 4.50582C8.63201 4.50582 8.76272 4.47968 8.88458 4.42891C9.00644 4.37814 9.11704 4.30375 9.21 4.21002C9.30373 4.11706 9.37812 4.00645 9.42889 3.8846C9.47966 3.76274 9.5058 3.63203 9.5058 3.50002C9.5058 3.36801 9.47966 3.2373 9.42889 3.11544C9.37812 2.99358 9.30373 2.88298 9.21 2.79002L6.71 0.290018C6.6149 0.198978 6.50275 0.127613 6.38 0.0800184C6.13654 -0.0199996 5.86346 -0.0199996 5.62 0.0800184C5.49725 0.127613 5.3851 0.198978 5.29 0.290018L2.79 2.79002C2.6017 2.97832 2.49591 3.23372 2.49591 3.50002C2.49591 3.76632 2.6017 4.02172 2.79 4.21002C2.9783 4.39832 3.2337 4.50411 3.5 4.50411C3.7663 4.50411 4.0217 4.39832 4.21 4.21002L5 3.41002V7.00002H1C0.734784 7.00002 0.48043 7.10538 0.292893 7.29291C0.105357 7.48045 0 7.7348 0 8.00002C0 8.26523 0.105357 8.51959 0.292893 8.70712C0.48043 8.89466 0.734784 9.00002 1 9.00002ZM11 11H1C0.734784 11 0.48043 11.1054 0.292893 11.2929C0.105357 11.4804 0 11.7348 0 12C0 12.2652 0.105357 12.5196 0.292893 12.7071C0.48043 12.8947 0.734784 13 1 13H5V16.59L4.21 15.79C4.11676 15.6968 4.00607 15.6228 3.88425 15.5724C3.76243 15.5219 3.63186 15.4959 3.5 15.4959C3.36814 15.4959 3.23757 15.5219 3.11575 15.5724C2.99393 15.6228 2.88324 15.6968 2.79 15.79C2.69676 15.8833 2.6228 15.9939 2.57234 16.1158C2.52188 16.2376 2.49591 16.3682 2.49591 16.5C2.49591 16.6319 2.52188 16.7624 2.57234 16.8843C2.6228 17.0061 2.69676 17.1168 2.79 17.21L5.29 19.71C5.3851 19.8011 5.49725 19.8724 5.62 19.92C5.7397 19.9729 5.86913 20.0003 6 20.0003C6.13087 20.0003 6.2603 19.9729 6.38 19.92C6.50275 19.8724 6.6149 19.8011 6.71 19.71L9.21 17.21C9.3983 17.0217 9.50409 16.7663 9.50409 16.5C9.50409 16.2337 9.3983 15.9783 9.21 15.79C9.0217 15.6017 8.7663 15.4959 8.5 15.4959C8.2337 15.4959 7.9783 15.6017 7.79 15.79L7 16.59V13H11C11.2652 13 11.5196 12.8947 11.7071 12.7071C11.8946 12.5196 12 12.2652 12 12C12 11.7348 11.8946 11.4804 11.7071 11.2929C11.5196 11.1054 11.2652 11 11 11Z"/>
</svg>
