<svg width="32" height="32" viewBox="0 0 32 32" fill="none" xmlns="http://www.w3.org/2000/svg">
<path d="M13.6132 19.667C13.7371 19.792 13.8846 19.8912 14.0471 19.9588C14.2095 20.0265 14.3838 20.0614 14.5598 20.0614C14.7359 20.0614 14.9101 20.0265 15.0726 19.9588C15.2351 19.8912 15.3826 19.792 15.5065 19.667L20.9465 14.227C21.1976 13.9759 21.3386 13.6354 21.3386 13.2803C21.3386 12.9253 21.1976 12.5847 20.9465 12.3337C20.6954 12.0826 20.3549 11.9415 19.9998 11.9415C19.6448 11.9415 19.3042 12.0826 19.0532 12.3337L14.5598 16.8403L12.9465 15.2137C12.6954 14.9626 12.3549 14.8215 11.9998 14.8215C11.6448 14.8215 11.3042 14.9626 11.0532 15.2137C10.8021 15.4647 10.661 15.8053 10.661 16.1603C10.661 16.5154 10.8021 16.8559 11.0532 17.107L13.6132 19.667ZM27.9998 2.66699H3.99984C3.64622 2.66699 3.30708 2.80747 3.05703 3.05752C2.80698 3.30756 2.6665 3.6467 2.6665 4.00033V28.0003C2.6665 28.3539 2.80698 28.6931 3.05703 28.9431C3.30708 29.1932 3.64622 29.3337 3.99984 29.3337H27.9998C28.3535 29.3337 28.6926 29.1932 28.9426 28.9431C29.1927 28.6931 29.3332 28.3539 29.3332 28.0003V4.00033C29.3332 3.6467 29.1927 3.30756 28.9426 3.05752C28.6926 2.80747 28.3535 2.66699 27.9998 2.66699ZM26.6665 26.667H5.33317V5.33366H26.6665V26.667Z" fill="#6DF1B2"/>
</svg>
