<svg width="32" height="32" viewBox="0 0 32 32" fill="none" xmlns="http://www.w3.org/2000/svg">
<path d="M16 2.6665C13.3629 2.6665 10.785 3.44849 8.59236 4.91358C6.39971 6.37866 4.69074 8.46104 3.68157 10.8974C2.6724 13.3337 2.40836 16.0146 2.92283 18.601C3.4373 21.1875 4.70717 23.5632 6.57188 25.4279C8.43658 27.2926 10.8123 28.5625 13.3988 29.077C15.9852 29.5914 18.6661 29.3274 21.1024 28.3182C23.5388 27.3091 25.6211 25.6001 27.0862 23.4074C28.5513 21.2148 29.3333 18.6369 29.3333 15.9998C29.3333 14.2489 28.9884 12.5151 28.3184 10.8974C27.6483 9.27972 26.6662 7.80986 25.4281 6.57175C24.1899 5.33363 22.7201 4.35151 21.1024 3.68144C19.4847 3.01138 17.7509 2.6665 16 2.6665ZM16 26.6665C13.8903 26.6665 11.828 26.0409 10.0739 24.8688C8.31976 23.6968 6.95259 22.0309 6.14525 20.0818C5.33792 18.1327 5.12668 15.988 5.53826 13.9189C5.94983 11.8497 6.96573 9.94913 8.45749 8.45737C9.94925 6.96561 11.8499 5.9497 13.919 5.53813C15.9881 5.12655 18.1328 5.33779 20.0819 6.14512C22.031 6.95246 23.6969 8.31963 24.869 10.0738C26.041 11.8279 26.6666 13.8902 26.6666 15.9998C26.6666 18.8288 25.5428 21.5419 23.5424 23.5423C21.5421 25.5427 18.8289 26.6665 16 26.6665ZM20.1333 16.8398L17.3333 15.2265V9.33317C17.3333 8.97955 17.1928 8.64041 16.9428 8.39036C16.6927 8.14031 16.3536 7.99984 16 7.99984C15.6463 7.99984 15.3072 8.14031 15.0572 8.39036C14.8071 8.64041 14.6666 8.97955 14.6666 9.33317V15.9998C14.6666 15.9998 14.6666 16.1065 14.6666 16.1598C14.6745 16.2517 14.697 16.3417 14.7333 16.4265C14.7608 16.5056 14.7965 16.5816 14.84 16.6532C14.8765 16.729 14.9212 16.8005 14.9733 16.8665L15.1866 17.0398L15.3066 17.1598L18.7733 19.1598C18.9765 19.275 19.2064 19.3348 19.44 19.3332C19.7352 19.3352 20.0227 19.2393 20.2575 19.0603C20.4923 18.8813 20.6611 18.6295 20.7374 18.3443C20.8136 18.0591 20.7931 17.7566 20.6789 17.4843C20.5648 17.2121 20.3635 16.9854 20.1066 16.8398H20.1333Z" fill="url(#paint0_linear_1669_7670)"/>
<defs>
<linearGradient id="paint0_linear_1669_7670" x1="16" y1="2.6665" x2="16" y2="29.3332" gradientUnits="userSpaceOnUse">
<stop stop-color="#6DF1B2"/>
<stop offset="1" stop-color="#1CC5F9"/>
</linearGradient>
</defs>
</svg>
