<svg width="32" height="32" viewBox="0 0 32 32" fill="none" xmlns="http://www.w3.org/2000/svg">
<path d="M28.2933 16.0002C28.957 15.2701 29.3274 14.3203 29.3333 13.3336C29.3333 12.2727 28.9119 11.2553 28.1617 10.5052C27.4116 9.755 26.3942 9.33358 25.3333 9.33358H18.4266C18.6396 8.73115 18.7052 8.08646 18.6179 7.45348C18.5305 6.8205 18.2928 6.21766 17.9246 5.69542C17.5564 5.17318 17.0685 4.74675 16.5017 4.45181C15.9348 4.15688 15.3056 4.00204 14.6666 4.00024H6.66663C5.60576 4.00024 4.58834 4.42167 3.8382 5.17182C3.08805 5.92196 2.66663 6.93938 2.66663 8.00024C2.67251 8.98698 3.04291 9.93673 3.70663 10.6669C3.05069 11.4003 2.68805 12.3497 2.68805 13.3336C2.68805 14.3175 3.05069 15.2669 3.70663 16.0002C3.05069 16.7336 2.68805 17.683 2.68805 18.6669C2.68805 19.6508 3.05069 20.6002 3.70663 21.3336C3.04291 22.0638 2.67251 23.0135 2.66663 24.0002C2.66663 25.0611 3.08805 26.0785 3.8382 26.8287C4.58834 27.5788 5.60576 28.0002 6.66663 28.0002H25.3333C26.1036 27.9961 26.8564 27.7696 27.5011 27.348C28.1459 26.9264 28.6552 26.3276 28.9678 25.6235C29.2804 24.9194 29.383 24.14 29.2634 23.379C29.1437 22.618 28.8069 21.9078 28.2933 21.3336C28.9492 20.6002 29.3119 19.6508 29.3119 18.6669C29.3119 17.683 28.9492 16.7336 28.2933 16.0002ZM14.6666 25.3336H6.66663C6.313 25.3336 5.97387 25.1931 5.72382 24.9431C5.47377 24.693 5.33329 24.3539 5.33329 24.0002C5.33329 23.6466 5.47377 23.3075 5.72382 23.0574C5.97387 22.8074 6.313 22.6669 6.66663 22.6669H14.6666C15.0202 22.6669 15.3594 22.8074 15.6094 23.0574C15.8595 23.3075 16 23.6466 16 24.0002C16 24.3539 15.8595 24.693 15.6094 24.9431C15.3594 25.1931 15.0202 25.3336 14.6666 25.3336ZM14.6666 20.0002H6.66663C6.313 20.0002 5.97387 19.8598 5.72382 19.6097C5.47377 19.3597 5.33329 19.0205 5.33329 18.6669C5.33329 18.3133 5.47377 17.9741 5.72382 17.7241C5.97387 17.4741 6.313 17.3336 6.66663 17.3336H14.6666C15.0202 17.3336 15.3594 17.4741 15.6094 17.7241C15.8595 17.9741 16 18.3133 16 18.6669C16 19.0205 15.8595 19.3597 15.6094 19.6097C15.3594 19.8598 15.0202 20.0002 14.6666 20.0002ZM14.6666 14.6669H6.66663C6.313 14.6669 5.97387 14.5264 5.72382 14.2764C5.47377 14.0263 5.33329 13.6872 5.33329 13.3336C5.33329 12.98 5.47377 12.6408 5.72382 12.3908C5.97387 12.1407 6.313 12.0002 6.66663 12.0002H14.6666C15.0202 12.0002 15.3594 12.1407 15.6094 12.3908C15.8595 12.6408 16 12.98 16 13.3336C16 13.6872 15.8595 14.0263 15.6094 14.2764C15.3594 14.5264 15.0202 14.6669 14.6666 14.6669ZM14.6666 9.33358H6.66663C6.313 9.33358 5.97387 9.1931 5.72382 8.94305C5.47377 8.693 5.33329 8.35387 5.33329 8.00024C5.33329 7.64662 5.47377 7.30748 5.72382 7.05744C5.97387 6.80739 6.313 6.66691 6.66663 6.66691H14.6666C15.0202 6.66691 15.3594 6.80739 15.6094 7.05744C15.8595 7.30748 16 7.64662 16 8.00024C16 8.35387 15.8595 8.693 15.6094 8.94305C15.3594 9.1931 15.0202 9.33358 14.6666 9.33358ZM26.2533 24.9469C26.1351 25.0716 25.9923 25.1703 25.8339 25.2369C25.6755 25.3034 25.5051 25.3364 25.3333 25.3336H18.4266C18.7464 24.4734 18.7464 23.527 18.4266 22.6669H25.3333C25.6869 22.6669 26.0261 22.8074 26.2761 23.0574C26.5261 23.3075 26.6666 23.6466 26.6666 24.0002C26.6642 24.1776 26.6263 24.3527 26.5554 24.5152C26.4844 24.6778 26.3817 24.8245 26.2533 24.9469ZM26.2533 19.6136C26.1351 19.7382 25.9923 19.837 25.8339 19.9035C25.6755 19.9701 25.5051 20.003 25.3333 20.0002H18.4266C18.7464 19.1401 18.7464 18.1937 18.4266 17.3336H25.3333C25.6869 17.3336 26.0261 17.4741 26.2761 17.7241C26.5261 17.9741 26.6666 18.3133 26.6666 18.6669C26.6642 18.8443 26.6263 19.0193 26.5554 19.1819C26.4844 19.3444 26.3817 19.4912 26.2533 19.6136ZM26.2533 14.2802C26.1351 14.4049 25.9923 14.5037 25.8339 14.5702C25.6755 14.6368 25.5051 14.6697 25.3333 14.6669H18.4266C18.7464 13.8068 18.7464 12.8604 18.4266 12.0002H25.3333C25.6869 12.0002 26.0261 12.1407 26.2761 12.3908C26.5261 12.6408 26.6666 12.98 26.6666 13.3336C26.6642 13.5109 26.6263 13.686 26.5554 13.8486C26.4844 14.0111 26.3817 14.1579 26.2533 14.2802Z" fill="url(#paint0_linear_1669_7646)"/>
<defs>
<linearGradient id="paint0_linear_1669_7646" x1="16" y1="4.00024" x2="16" y2="28.0002" gradientUnits="userSpaceOnUse">
<stop stop-color="#6DF1B2"/>
<stop offset="1" stop-color="#1CC5F9"/>
</linearGradient>
</defs>
</svg>
