<svg width="198" height="38" viewBox="0 0 198 38" fill="none" xmlns="http://www.w3.org/2000/svg">
<g id="Vector">
<path d="M13.8744 32.7969C11.1441 32.7969 8.80025 32.2174 6.84271 31.0583C4.88517 29.8735 3.37838 28.2379 2.32234 26.1516C1.2663 24.0395 0.738281 21.6054 0.738281 18.8494C0.738281 16.0934 1.2663 13.6594 2.32234 11.5473C3.37838 9.43522 4.88517 7.78676 6.84271 6.60194C8.80025 5.41711 11.1441 4.8247 13.8744 4.8247C17.1198 4.8247 19.7728 5.63604 21.8333 7.25874C23.9197 8.85568 25.2204 11.1094 25.7355 14.02H20.2879C19.9531 12.5518 19.2319 11.4056 18.1243 10.5814C17.0425 9.73142 15.6001 9.30643 13.7971 9.30643C11.2987 9.30643 9.34115 10.1564 7.92451 11.8564C6.50787 13.5564 5.79955 15.8874 5.79955 18.8494C5.79955 21.8115 6.50787 24.1425 7.92451 25.8425C9.34115 27.5167 11.2987 28.3538 13.7971 28.3538C15.6001 28.3538 17.0425 27.9674 18.1243 27.1947C19.2319 26.3963 19.9531 25.3016 20.2879 23.9107H25.7355C25.2204 26.6925 23.9197 28.8689 21.8333 30.4401C19.7728 32.0113 17.1198 32.7969 13.8744 32.7969Z" fill="white"/>
<path d="M42.7856 32.7969C40.0811 32.7969 37.7115 32.2045 35.6767 31.0197C33.6676 29.8348 32.0836 28.1993 30.9245 26.1129C29.7912 24.0009 29.2245 21.5668 29.2245 18.8108C29.2245 16.0548 29.7912 13.6336 30.9245 11.5473C32.0836 9.43522 33.6676 7.78676 35.6767 6.60194C37.7115 5.41711 40.0811 4.8247 42.7856 4.8247C45.4644 4.8247 47.8211 5.41711 49.856 6.60194C51.8908 7.78676 53.4748 9.43522 54.6081 11.5473C55.7415 13.6336 56.3081 16.0548 56.3081 18.8108C56.3081 21.5668 55.7415 24.0009 54.6081 26.1129C53.4748 28.1993 51.8908 29.8348 49.856 31.0197C47.8211 32.2045 45.4644 32.7969 42.7856 32.7969ZM42.7856 28.3538C45.3613 28.3538 47.409 27.5038 48.9287 25.8039C50.4741 24.1039 51.2468 21.7729 51.2468 18.8108C51.2468 15.8487 50.4741 13.5177 48.9287 11.8177C47.409 10.1178 45.3613 9.26779 42.7856 9.26779C40.2099 9.26779 38.1494 10.1178 36.6039 11.8177C35.0585 13.5177 34.2858 15.8487 34.2858 18.8108C34.2858 21.7729 35.0585 24.1039 36.6039 25.8039C38.1494 27.5038 40.2099 28.3538 42.7856 28.3538Z" fill="white"/>
<path d="M60.6745 32.3333V5.28832H66.5472L75.1629 22.4425L83.6628 5.28832H89.5354V32.3333H84.59V13.6723L77.0561 28.4697H73.1539L65.6199 13.6723V32.3333H60.6745Z" fill="white"/>
<path d="M94.7826 32.3333V5.28832H104.789C106.953 5.28832 108.743 5.64892 110.16 6.37012C111.576 7.09132 112.632 8.08297 113.328 9.34507C114.023 10.6072 114.371 12.0238 114.371 13.595C114.371 15.0889 114.036 16.4669 113.366 17.729C112.697 18.9653 111.653 19.9699 110.237 20.7426C108.82 21.4895 107.004 21.863 104.789 21.863H99.7279V32.3333H94.7826ZM99.7279 17.8449H104.48C106.206 17.8449 107.442 17.4714 108.189 16.7245C108.962 15.9518 109.348 14.9086 109.348 13.595C109.348 12.2556 108.962 11.2125 108.189 10.4655C107.442 9.69279 106.206 9.30643 104.48 9.30643H99.7279V17.8449Z" fill="white"/>
<path d="M118.251 32.3333V5.28832H123.196V28.4697H135.173V32.3333H118.251Z" fill="white"/>
<path d="M142.414 10.1951C141.513 10.1951 140.766 9.92469 140.174 9.38379C139.607 8.84289 139.324 8.16033 139.324 7.3361C139.324 6.51188 139.607 5.84219 140.174 5.32705C140.766 4.78615 141.513 4.5157 142.414 4.5157C143.316 4.5157 144.05 4.78615 144.617 5.32705C145.209 5.84219 145.505 6.51188 145.505 7.3361C145.505 8.16033 145.209 8.84289 144.617 9.38379C144.05 9.92469 143.316 10.1951 142.414 10.1951ZM139.942 32.3334V13.1701H144.887V32.3334H139.942Z" fill="#6DF1B2"/>
<path d="M162.837 32.797C160.133 32.797 157.763 32.2046 155.728 31.0198C153.719 29.8349 152.135 28.1994 150.976 26.113C149.843 24.0009 149.276 21.5669 149.276 18.8109C149.276 16.0549 149.843 13.6337 150.976 11.5474C152.135 9.43531 153.719 7.78685 155.728 6.60203C157.763 5.4172 160.133 4.82479 162.837 4.82479C165.516 4.82479 167.873 5.4172 169.908 6.60203C171.942 7.78685 173.527 9.43531 174.66 11.5474C175.793 13.6337 176.36 16.0549 176.36 18.8109C176.36 21.3866 175.858 23.6919 174.853 25.7267C173.848 27.7357 172.458 29.3327 170.68 30.5175L176.939 37.2401H170.796L166.546 32.372C165.362 32.6553 164.125 32.797 162.837 32.797ZM162.837 28.3539C165.413 28.3539 167.461 27.5039 168.98 25.8039C170.526 24.104 171.299 21.773 171.299 18.8109C171.299 15.8488 170.526 13.5178 168.98 11.8178C167.461 10.1179 165.413 9.26789 162.837 9.26789C160.262 9.26789 158.201 10.1179 156.656 11.8178C155.11 13.5178 154.337 15.8488 154.337 18.8109C154.337 21.773 155.11 24.104 156.656 25.8039C158.201 27.5039 160.262 28.3539 162.837 28.3539Z" fill="#6DF1B2"/>
<path d="M184.856 8.99961V1.42761H182.348V0.599609H188.372V1.42761H185.864V8.99961H184.856Z" fill="white"/>
<path d="M189.603 8.99961V0.599609H190.779L193.803 6.45561L196.803 0.599609H197.991V8.99961H196.983V2.39961L194.175 7.79961H193.419L190.611 2.41161V8.99961H189.603Z" fill="white"/>
</g>
</svg>
