<svg width="198" height="38" viewBox="0 0 198 38" fill="none" xmlns="http://www.w3.org/2000/svg">
<g id="Vector">
<path d="M13.8749 32.7974C11.1446 32.7974 8.80074 32.2179 6.8432 31.0588C4.88566 29.874 3.37887 28.2384 2.32283 26.1521C1.26679 24.04 0.73877 21.6059 0.73877 18.8499C0.73877 16.0939 1.26679 13.6599 2.32283 11.5478C3.37887 9.4357 4.88566 7.78725 6.8432 6.60242C8.80074 5.4176 11.1446 4.82518 13.8749 4.82518C17.1203 4.82518 19.7733 5.63653 21.8338 7.25923C23.9202 8.85617 25.2209 11.1099 25.736 14.0205H20.2884C19.9536 12.5523 19.2324 11.4061 18.1248 10.5819C17.043 9.73191 15.6006 9.30692 13.7976 9.30692C11.2992 9.30692 9.34164 10.1569 7.925 11.8569C6.50836 13.5568 5.80004 15.8879 5.80004 18.8499C5.80004 21.812 6.50836 24.143 7.925 25.843C9.34164 27.5172 11.2992 28.3543 13.7976 28.3543C15.6006 28.3543 17.043 27.9679 18.1248 27.1952C19.2324 26.3968 19.9536 25.3021 20.2884 23.9112H25.736C25.2209 26.693 23.9202 28.8694 21.8338 30.4406C19.7733 32.0118 17.1203 32.7974 13.8749 32.7974Z" fill="#0F1B1A"/>
<path d="M42.7861 32.7974C40.0816 32.7974 37.712 32.205 35.6772 31.0202C33.6681 29.8353 32.084 28.1997 30.925 26.1134C29.7917 24.0013 29.225 21.5673 29.225 18.8113C29.225 16.0553 29.7917 13.6341 30.925 11.5478C32.084 9.4357 33.6681 7.78725 35.6772 6.60242C37.712 5.4176 40.0816 4.82518 42.7861 4.82518C45.4649 4.82518 47.8216 5.4176 49.8564 6.60242C51.8913 7.78725 53.4753 9.4357 54.6086 11.5478C55.7419 13.6341 56.3086 16.0553 56.3086 18.8113C56.3086 21.5673 55.7419 24.0013 54.6086 26.1134C53.4753 28.1997 51.8913 29.8353 49.8564 31.0202C47.8216 32.205 45.4649 32.7974 42.7861 32.7974ZM42.7861 28.3543C45.3618 28.3543 47.4095 27.5043 48.9292 25.8043C50.4746 24.1044 51.2473 21.7734 51.2473 18.8113C51.2473 15.8492 50.4746 13.5182 48.9292 11.8182C47.4095 10.1183 45.3618 9.26828 42.7861 9.26828C40.2104 9.26828 38.1498 10.1183 36.6044 11.8182C35.059 13.5182 34.2863 15.8492 34.2863 18.8113C34.2863 21.7734 35.059 24.1044 36.6044 25.8043C38.1498 27.5043 40.2104 28.3543 42.7861 28.3543Z" fill="#0F1B1A"/>
<path d="M60.675 32.3338V5.28881H66.5476L75.1634 22.443L83.6632 5.28881H89.5359V32.3338H84.5905V13.6727L77.0565 28.4702H73.1543L65.6204 13.6727V32.3338H60.675Z" fill="#0F1B1A"/>
<path d="M94.7831 32.3338V5.28881H104.79C106.953 5.28881 108.743 5.64941 110.16 6.37061C111.577 7.09181 112.633 8.08346 113.328 9.34555C114.024 10.6077 114.371 12.0243 114.371 13.5955C114.371 15.0894 114.036 16.4674 113.367 17.7295C112.697 18.9658 111.654 19.9704 110.237 20.7431C108.821 21.49 107.005 21.8635 104.79 21.8635H99.7284V32.3338H94.7831ZM99.7284 17.8454H104.481C106.206 17.8454 107.443 17.4719 108.19 16.725C108.962 15.9522 109.349 14.9091 109.349 13.5955C109.349 12.2561 108.962 11.2129 108.19 10.466C107.443 9.69327 106.206 9.30692 104.481 9.30692H99.7284V17.8454Z" fill="#0F1B1A"/>
<path d="M118.251 32.3338V5.28881H123.197V28.4702H135.174V32.3338H118.251Z" fill="#0F1B1A"/>
<path d="M142.415 10.1956C141.513 10.1956 140.767 9.92518 140.174 9.38428C139.607 8.84338 139.324 8.16082 139.324 7.33659C139.324 6.51236 139.607 5.84268 140.174 5.32754C140.767 4.78664 141.513 4.51619 142.415 4.51619C143.316 4.51619 144.051 4.78664 144.617 5.32754C145.21 5.84268 145.506 6.51236 145.506 7.33659C145.506 8.16082 145.21 8.84338 144.617 9.38428C144.051 9.92518 143.316 10.1956 142.415 10.1956ZM139.942 32.3339V13.1706H144.888V32.3339H139.942Z" fill="#4CA97D"/>
<path d="M162.838 32.7975C160.133 32.7975 157.764 32.2051 155.729 31.0202C153.72 29.8354 152.136 28.1998 150.977 26.1135C149.843 24.0014 149.277 21.5674 149.277 18.8114C149.277 16.0554 149.843 13.6342 150.977 11.5479C152.136 9.43579 153.72 7.78734 155.729 6.60251C157.764 5.41769 160.133 4.82527 162.838 4.82527C165.517 4.82527 167.873 5.41769 169.908 6.60251C171.943 7.78734 173.527 9.43579 174.66 11.5479C175.794 13.6342 176.36 16.0554 176.36 18.8114C176.36 21.3871 175.858 23.6923 174.854 25.7272C173.849 27.7362 172.458 29.3332 170.681 30.518L176.94 37.2406H170.797L166.547 32.3725C165.362 32.6558 164.126 32.7975 162.838 32.7975ZM162.838 28.3544C165.414 28.3544 167.461 27.5044 168.981 25.8044C170.526 24.1045 171.299 21.7734 171.299 18.8114C171.299 15.8493 170.526 13.5183 168.981 11.8183C167.461 10.1184 165.414 9.26837 162.838 9.26837C160.262 9.26837 158.202 10.1184 156.656 11.8183C155.111 13.5183 154.338 15.8493 154.338 18.8114C154.338 21.7734 155.111 24.1045 156.656 25.8044C158.202 27.5044 160.262 28.3544 162.838 28.3544Z" fill="#4CA97D"/>
<path d="M184.856 9.0001V1.4281H182.348V0.600098H188.372V1.4281H185.864V9.0001H184.856Z" fill="#0F1B1A"/>
<path d="M189.603 9.0001V0.600098H190.779L193.803 6.4561L196.803 0.600098H197.991V9.0001H196.983V2.4001L194.175 7.8001H193.419L190.611 2.4121V9.0001H189.603Z" fill="#0F1B1A"/>
</g>
</svg>
