<svg width="22" height="28" viewBox="0 0 22 28" fill="none" xmlns="http://www.w3.org/2000/svg">
<path d="M17.6667 6.07992C16.742 6.08054 15.846 6.40151 15.1313 6.98824C14.4166 7.57497 13.9272 8.3912 13.7465 9.29807C13.5657 10.2049 13.7048 11.1464 14.1399 11.9623C14.5751 12.7782 15.2795 13.4182 16.1333 13.7733C15.9303 14.2598 15.5877 14.6753 15.1486 14.9672C14.7096 15.2591 14.1939 15.4144 13.6667 15.4133H8.33332C7.39337 15.4172 6.47198 15.6752 5.66665 16.1599V8.50659C6.55627 8.19206 7.30606 7.57316 7.7835 6.75928C8.26093 5.9454 8.43528 4.98894 8.27572 4.05894C8.11615 3.12895 7.63296 2.2853 6.91153 1.67711C6.19011 1.06892 5.2769 0.735352 4.33332 0.735352C3.38974 0.735352 2.47653 1.06892 1.75511 1.67711C1.03368 2.2853 0.550489 3.12895 0.390927 4.05894C0.231365 4.98894 0.405709 5.9454 0.883146 6.75928C1.36058 7.57316 2.11037 8.19206 2.99999 8.50659V19.6533C2.12131 19.9693 1.38087 20.5827 0.906988 21.3873C0.43311 22.1919 0.255659 23.1369 0.405387 24.0586C0.555114 24.9803 1.02259 25.8206 1.72679 26.4338C2.43099 27.047 3.32754 27.3946 4.26106 27.4162C5.19459 27.4378 6.10626 27.1321 6.83808 26.5521C7.5699 25.9722 8.07575 25.1544 8.26797 24.2406C8.46018 23.3269 8.32665 22.3746 7.89051 21.549C7.45437 20.7233 6.74311 20.0762 5.87999 19.7199C6.08209 19.2354 6.4227 18.8214 6.85912 18.5296C7.29555 18.2379 7.80837 18.0815 8.33332 18.0799H13.6667C14.8864 18.0797 16.0693 17.6613 17.0179 16.8946C17.9666 16.1279 18.6238 15.0592 18.88 13.8666C19.7714 13.5637 20.5275 12.9561 21.015 12.1507C21.5026 11.3452 21.6904 10.3937 21.5454 9.46339C21.4005 8.53313 20.932 7.68381 20.2225 7.06492C19.513 6.44602 18.608 6.09723 17.6667 6.07992V6.07992ZM4.33332 3.41325C4.59703 3.41325 4.85482 3.49145 5.07408 3.63796C5.29335 3.78447 5.46424 3.99271 5.56516 4.23634C5.66608 4.47998 5.69248 4.74807 5.64104 5.00671C5.58959 5.26535 5.4626 5.50293 5.27613 5.6894C5.08966 5.87587 4.85208 6.00285 4.59344 6.0543C4.3348 6.10575 4.06671 6.07934 3.82308 5.97843C3.57944 5.87751 3.3712 5.70661 3.2247 5.48735C3.07819 5.26808 2.99999 5.0103 2.99999 4.74659C2.99999 4.39297 3.14046 4.05383 3.39051 3.80378C3.64056 3.55373 3.9797 3.41325 4.33332 3.41325ZM4.33332 24.7466C4.06961 24.7466 3.81183 24.6684 3.59256 24.5219C3.3733 24.3754 3.2024 24.1671 3.10148 23.9235C3.00056 23.6799 2.97416 23.4118 3.02561 23.1531C3.07705 22.8945 3.20404 22.6569 3.39051 22.4704C3.57698 22.284 3.81456 22.157 4.0732 22.1055C4.33184 22.0541 4.59993 22.0805 4.84357 22.1814C5.0872 22.2823 5.29544 22.4532 5.44195 22.6725C5.58846 22.8918 5.66665 23.1495 5.66665 23.4133C5.66665 23.7669 5.52618 24.106 5.27613 24.3561C5.02608 24.6061 4.68694 24.7466 4.33332 24.7466ZM17.6667 11.4133C17.4029 11.4133 17.1452 11.3351 16.9259 11.1885C16.7066 11.042 16.5357 10.8338 16.4348 10.5902C16.3339 10.3465 16.3075 10.0784 16.3589 9.8198C16.4104 9.56116 16.5374 9.32358 16.7238 9.13711C16.9103 8.95064 17.1479 8.82366 17.4065 8.77221C17.6652 8.72076 17.9333 8.74717 18.1769 8.84808C18.4205 8.949 18.6288 9.1199 18.7753 9.33916C18.9218 9.55843 19 9.81621 19 10.0799C19 10.4335 18.8595 10.7727 18.6095 11.0227C18.3594 11.2728 18.0203 11.4133 17.6667 11.4133Z" fill="#6DF1B2"/>
</svg>
