<svg width="14" height="10" viewBox="0 0 14 10" fill="none" xmlns="http://www.w3.org/2000/svg">
<path d="M7.94641 8.77326L13.5997 3.11992C13.7247 2.99597 13.8239 2.84851 13.8916 2.68603C13.9593 2.52355 13.9941 2.34927 13.9941 2.17326C13.9941 1.99724 13.9593 1.82297 13.8916 1.66049C13.8239 1.49801 13.7247 1.35054 13.5997 1.22659C13.3499 0.978256 13.012 0.838867 12.6597 0.838867C12.3075 0.838867 11.9696 0.978256 11.7197 1.22659L6.99974 5.94659L2.27974 1.22659C2.02993 0.978255 1.69199 0.838867 1.33974 0.838867C0.987494 0.838867 0.649558 0.978255 0.399742 1.22659C0.276167 1.35118 0.1784 1.49893 0.112047 1.66138C0.0456946 1.82383 0.0120618 1.99778 0.0130763 2.17326C0.0120618 2.34873 0.0456945 2.52268 0.112047 2.68513C0.1784 2.84758 0.276166 2.99534 0.399742 3.11992L6.05308 8.77326C6.17703 8.89823 6.32449 8.99742 6.48697 9.06511C6.64945 9.1328 6.82373 9.16765 6.99974 9.16765C7.17576 9.16765 7.35003 9.1328 7.51251 9.06511C7.67499 8.99742 7.82246 8.89823 7.94641 8.77326Z" fill="#6DF1B2"/>
</svg>
