<svg width="12" height="12" viewBox="0 0 12 12" fill="none" xmlns="http://www.w3.org/2000/svg">
<path d="M11.7099 5.29C11.617 5.19627 11.5064 5.12188 11.3845 5.07111C11.2627 5.02034 11.132 4.9942 10.9999 4.9942C10.8679 4.9942 10.7372 5.02034 10.6154 5.07111C10.4935 5.12188 10.3829 5.19627 10.2899 5.29L6.99994 8.59V1C6.99994 0.734784 6.89458 0.48043 6.70705 0.292893C6.51951 0.105357 6.26516 0 5.99994 0C5.73472 0 5.48037 0.105357 5.29283 0.292893C5.1053 0.48043 4.99994 0.734784 4.99994 1V8.59L1.70994 5.29C1.52164 5.1017 1.26624 4.99591 0.999941 4.99591C0.73364 4.99591 0.478245 5.1017 0.289941 5.29C0.101638 5.4783 -0.00415039 5.7337 -0.00415039 6C-0.00415039 6.2663 0.101638 6.5217 0.289941 6.71L5.28994 11.71C5.38505 11.801 5.49719 11.8724 5.61994 11.92C5.73964 11.9729 5.86907 12.0002 5.99994 12.0002C6.13081 12.0002 6.26024 11.9729 6.37994 11.92C6.50269 11.8724 6.61484 11.801 6.70994 11.71L11.7099 6.71C11.8037 6.61704 11.8781 6.50644 11.9288 6.38458C11.9796 6.26272 12.0057 6.13201 12.0057 6C12.0057 5.86799 11.9796 5.73728 11.9288 5.61542C11.8781 5.49356 11.8037 5.38296 11.7099 5.29Z" fill="#0F1B1A"/>
</svg>
