<svg width="28" height="16" viewBox="0 0 28 16" fill="none" xmlns="http://www.w3.org/2000/svg">
<path d="M25.9999 9.32788C25.6463 9.32788 25.3072 9.1874 25.0571 8.93735C24.8071 8.68731 24.6666 8.34817 24.6666 7.99455V4.54121L16.2799 12.9412C16.156 13.0662 16.0085 13.1654 15.846 13.2331C15.6835 13.3008 15.5093 13.3356 15.3333 13.3356C15.1572 13.3356 14.983 13.3008 14.8205 13.2331C14.658 13.1654 14.5105 13.0662 14.3866 12.9412L9.99992 8.54121L2.94659 15.6079C2.69552 15.8589 2.35499 16 1.99992 16C1.64485 16 1.30433 15.8589 1.05325 15.6079C0.802183 15.3568 0.661133 15.0163 0.661133 14.6612C0.661133 14.3061 0.802183 13.9656 1.05325 13.7145L9.05325 5.71455C9.17721 5.58957 9.32467 5.49038 9.48715 5.42269C9.64963 5.355 9.82391 5.32015 9.99992 5.32015C10.1759 5.32015 10.3502 5.355 10.5127 5.42269C10.6752 5.49038 10.8226 5.58957 10.9466 5.71455L15.3333 10.1145L22.7866 2.66121H19.3333C18.9796 2.66121 18.6405 2.52074 18.3904 2.27069C18.1404 2.02064 17.9999 1.6815 17.9999 1.32788C17.9999 0.974259 18.1404 0.635119 18.3904 0.385071C18.6405 0.135022 18.9796 -0.00545263 19.3333 -0.00545263H25.9999C26.1742 -0.00334598 26.3463 0.0328926 26.5066 0.101214C26.8324 0.236514 27.0913 0.495416 27.2266 0.821215C27.2949 0.981511 27.3311 1.15364 27.3333 1.32788V7.99455C27.3333 8.34817 27.1928 8.68731 26.9427 8.93735C26.6927 9.1874 26.3535 9.32788 25.9999 9.32788Z" fill="#6DF1B2"/>
</svg>
