<svg width="32" height="32" viewBox="0 0 32 32" fill="none" xmlns="http://www.w3.org/2000/svg">
<g clip-path="url(#clip0_37858_43082)">
<path d="M16 32C24.8366 32 32 24.8366 32 16C32 7.16344 24.8366 0 16 0C7.16344 0 0 7.16344 0 16C0 24.8366 7.16344 32 16 32Z" fill="#0052B4"/>
<path d="M16 6.26074L16.5181 7.85505H18.1944L16.8382 8.84037L17.3562 10.4347L16 9.4493L14.6438 10.4347L15.1619 8.84037L13.8057 7.85505H15.482L16 6.26074Z" fill="#FFDA44"/>
<path d="M9.11315 9.1137L10.6069 9.8747L11.7922 8.68945L11.5299 10.3451L13.0236 11.1061L11.3679 11.3684L11.1057 13.0241L10.3446 11.5305L8.68896 11.7928L9.87428 10.6075L9.11315 9.1137Z" fill="#FFDA44"/>
<path d="M6.26074 16L7.85505 15.482V13.8057L8.8403 15.1619L10.4347 14.6439L9.44924 16L10.4347 17.3562L8.8403 16.8382L7.85505 18.1944V16.5181L6.26074 16Z" fill="#FFDA44"/>
<path d="M9.11315 22.8869L9.87422 21.3932L8.68896 20.2079L10.3447 20.4703L11.1056 18.9766L11.3679 20.6322L13.0235 20.8945L11.53 21.6556L11.7922 23.3112L10.6069 22.1259L9.11315 22.8869Z" fill="#FFDA44"/>
<path d="M16 25.7392L15.4819 24.1449H13.8057L15.1619 23.1596L14.6438 21.5654L16 22.5507L17.3562 21.5654L16.8382 23.1596L18.1944 24.1449H16.518L16 25.7392Z" fill="#FFDA44"/>
<path d="M22.8864 22.8869L21.3927 22.1259L20.2073 23.3113L20.4696 21.6555L18.9761 20.8945L20.6317 20.6322L20.8939 18.9766L21.6549 20.4703L23.3106 20.2079L22.1253 21.3933L22.8864 22.8869Z" fill="#FFDA44"/>
<path d="M25.7388 16L24.1444 16.5181V18.1944L23.1591 16.8382L21.5649 17.3562L22.5503 16L21.5649 14.6439L23.1592 15.1619L24.1444 13.8057V15.482L25.7388 16Z" fill="#FFDA44"/>
<path d="M22.8864 9.11364L22.1253 10.6074L23.3106 11.7927L21.6549 11.5303L20.8939 13.024L20.6317 11.3683L18.9761 11.106L20.4696 10.345L20.2073 8.68945L21.3928 9.8747L22.8864 9.11364Z" fill="#FFDA44"/>
</g>
<defs>
<clipPath id="clip0_37858_43082">
<rect width="32" height="32" fill="white"/>
</clipPath>
</defs>
</svg>
