<svg width="45" height="41" viewBox="0 0 45 41" fill="none" xmlns="http://www.w3.org/2000/svg">
<path d="M22.579 28.7374C22.1835 28.7374 21.7968 28.8547 21.4679 29.0744C21.139 29.2942 20.8827 29.6065 20.7313 29.972C20.5799 30.3374 20.5403 30.7396 20.6175 31.1275C20.6946 31.5155 20.8851 31.8719 21.1648 32.1516C21.4445 32.4313 21.8009 32.6218 22.1889 32.6989C22.5768 32.7761 22.979 32.7365 23.3444 32.5851C23.7099 32.4337 24.0222 32.1774 24.242 31.8485C24.4617 31.5196 24.579 31.1329 24.579 30.7374C24.579 30.2069 24.3683 29.6982 23.9932 29.3231C23.6182 28.9481 23.1095 28.7374 22.579 28.7374ZM43.919 31.6774L27.819 3.67736C27.2986 2.74439 26.5386 1.96727 25.6174 1.4263C24.6962 0.885319 23.6473 0.600098 22.579 0.600098C21.5107 0.600098 20.4618 0.885319 19.5407 1.4263C18.6195 1.96727 17.8594 2.74439 17.339 3.67736L1.33904 31.6774C0.800628 32.5854 0.511322 33.6194 0.500326 34.675C0.489329 35.7306 0.757033 36.7704 1.27641 37.6895C1.79578 38.6085 2.54845 39.3743 3.4584 39.9094C4.36836 40.4446 5.40341 40.7302 6.45904 40.7374H38.699C39.7631 40.7478 40.8109 40.4751 41.7349 39.9472C42.6588 39.4192 43.4257 38.6551 43.957 37.733C44.4883 36.8109 44.7647 35.7642 44.758 34.7C44.7514 33.6359 44.4618 32.5927 43.919 31.6774ZM40.459 35.6774C40.2837 35.9893 40.028 36.2484 39.7184 36.4278C39.4088 36.6072 39.0568 36.7003 38.699 36.6974H6.45904C6.10126 36.7003 5.74924 36.6072 5.43967 36.4278C5.13011 36.2484 4.87434 35.9893 4.69904 35.6774C4.5235 35.3733 4.43109 35.0284 4.43109 34.6774C4.43109 34.3263 4.5235 33.9814 4.69904 33.6774L20.699 5.67736C20.8669 5.34976 21.1219 5.07483 21.4359 4.88284C21.75 4.69086 22.1109 4.58928 22.479 4.58928C22.8471 4.58928 23.2081 4.69086 23.5221 4.88284C23.8362 5.07483 24.0912 5.34976 24.259 5.67736L40.359 33.6774C40.5575 33.977 40.6715 34.3246 40.6891 34.6836C40.7067 35.0426 40.6272 35.3997 40.459 35.7174V35.6774ZM22.579 12.7374C22.0486 12.7374 21.5399 12.9481 21.1648 13.3231C20.7898 13.6982 20.579 14.2069 20.579 14.7374V22.7374C20.579 23.2678 20.7898 23.7765 21.1648 24.1516C21.5399 24.5266 22.0486 24.7374 22.579 24.7374C23.1095 24.7374 23.6182 24.5266 23.9932 24.1516C24.3683 23.7765 24.579 23.2678 24.579 22.7374V14.7374C24.579 14.2069 24.3683 13.6982 23.9932 13.3231C23.6182 12.9481 23.1095 12.7374 22.579 12.7374Z" fill="url(#paint0_linear_1307_1369)"/>
<defs>
<linearGradient id="paint0_linear_1307_1369" x1="22.6291" y1="0.600098" x2="22.6291" y2="40.7377" gradientUnits="userSpaceOnUse">
<stop stop-color="#6DF1B2"/>
<stop offset="1" stop-color="#1CC5F9"/>
</linearGradient>
</defs>
</svg>
