<svg width="24" height="24" viewBox="0 0 24 24" fill="none" xmlns="http://www.w3.org/2000/svg">
<path d="M12.0359 15.5322C11.8553 15.5322 11.6788 15.5858 11.5286 15.6861C11.3785 15.7864 11.2615 15.929 11.1924 16.0959C11.1232 16.2627 11.1052 16.4463 11.1404 16.6234C11.1756 16.8005 11.2626 16.9632 11.3903 17.0909C11.518 17.2186 11.6807 17.3056 11.8578 17.3408C12.0349 17.376 12.2185 17.3579 12.3853 17.2888C12.5521 17.2197 12.6947 17.1027 12.7951 16.9525C12.8954 16.8024 12.9489 16.6259 12.9489 16.4453C12.9489 16.2031 12.8528 15.9709 12.6815 15.7997C12.5103 15.6284 12.2781 15.5322 12.0359 15.5322ZM21.7781 16.8744L14.4281 4.09173C14.1905 3.66581 13.8435 3.31104 13.423 3.06407C13.0025 2.8171 12.5236 2.68689 12.0359 2.68689C11.5482 2.68689 11.0693 2.8171 10.6488 3.06407C10.2283 3.31104 9.88128 3.66581 9.64371 4.09173L2.33932 16.8744C2.09353 17.2889 1.96145 17.761 1.95643 18.2429C1.95141 18.7248 2.07363 19.1995 2.31073 19.6191C2.54784 20.0387 2.89145 20.3882 3.30687 20.6325C3.72229 20.8769 4.19481 21.0072 4.67673 21.0105H19.3951C19.8809 21.0153 20.3592 20.8908 20.781 20.6498C21.2028 20.4088 21.5529 20.0599 21.7955 19.639C22.038 19.218 22.1642 18.7401 22.1612 18.2543C22.1581 17.7685 22.0259 17.2923 21.7781 16.8744ZM20.1986 18.7005C20.1185 18.8429 20.0018 18.9612 19.8604 19.0431C19.7191 19.125 19.5584 19.1675 19.3951 19.1662H4.67673C4.51339 19.1675 4.35269 19.125 4.21136 19.0431C4.07004 18.9612 3.95328 18.8429 3.87325 18.7005C3.79311 18.5617 3.75092 18.4043 3.75092 18.244C3.75092 18.0837 3.79311 17.9263 3.87325 17.7875L11.1776 5.00478C11.2543 4.85522 11.3707 4.72971 11.514 4.64207C11.6574 4.55442 11.8222 4.50805 11.9902 4.50805C12.1583 4.50805 12.3231 4.55442 12.4665 4.64207C12.6098 4.72971 12.7262 4.85522 12.8029 5.00478L20.1529 17.7875C20.2435 17.9243 20.2955 18.083 20.3036 18.2468C20.3116 18.4107 20.2753 18.5738 20.1986 18.7188V18.7005ZM12.0359 8.22784C11.7937 8.22784 11.5615 8.32404 11.3903 8.49527C11.219 8.6665 11.1228 8.89874 11.1228 9.14089V12.7931C11.1228 13.0352 11.219 13.2675 11.3903 13.4387C11.5615 13.6099 11.7937 13.7061 12.0359 13.7061C12.2781 13.7061 12.5103 13.6099 12.6815 13.4387C12.8528 13.2675 12.9489 13.0352 12.9489 12.7931V9.14089C12.9489 8.89874 12.8528 8.6665 12.6815 8.49527C12.5103 8.32404 12.2781 8.22784 12.0359 8.22784Z" fill="#C8343D"/>
</svg>
