<svg width="28" height="28" viewBox="0 0 28 28" fill="none" xmlns="http://www.w3.org/2000/svg">
<path d="M26.9468 25.0532L22.0001 20.1465C23.9202 17.7524 24.8501 14.7136 24.5985 11.6549C24.3469 8.59627 22.933 5.75025 20.6475 3.70206C18.3619 1.65388 15.3785 0.559219 12.3107 0.643166C9.24283 0.727114 6.32375 1.98329 4.15364 4.15339C1.98353 6.3235 0.727358 9.24259 0.643411 12.3104C0.559463 15.3783 1.65412 18.3617 3.70231 20.6472C5.75049 22.9328 8.59652 24.3467 11.6552 24.5983C14.7138 24.8499 17.7527 23.92 20.1468 21.9999L25.0535 26.9065C25.1774 27.0315 25.3249 27.1307 25.4873 27.1984C25.6498 27.2661 25.8241 27.3009 26.0001 27.3009C26.1761 27.3009 26.3504 27.2661 26.5129 27.1984C26.6754 27.1307 26.8228 27.0315 26.9468 26.9065C27.1871 26.6579 27.3214 26.3257 27.3214 25.9799C27.3214 25.6341 27.1871 25.3018 26.9468 25.0532V25.0532ZM12.6668 21.9999C10.8208 21.9999 9.01632 21.4525 7.48146 20.4269C5.9466 19.4014 4.75033 17.9437 4.04391 16.2383C3.33749 14.5328 3.15266 12.6562 3.51279 10.8457C3.87292 9.03521 4.76183 7.37217 6.06712 6.06688C7.37241 4.76159 9.03545 3.87267 10.8459 3.51254C12.6564 3.15241 14.5331 3.33725 16.2385 4.04366C17.9439 4.75008 19.4016 5.94636 20.4272 7.48122C21.4527 9.01608 22.0001 10.8206 22.0001 12.6665C22.0001 15.1419 21.0168 17.5159 19.2664 19.2662C17.5161 21.0165 15.1421 21.9999 12.6668 21.9999V21.9999Z" fill="#6DF1B2"/>
</svg>
