<svg width="32" height="32" viewBox="0 0 32 32" fill="none" xmlns="http://www.w3.org/2000/svg">
<path d="M16 26.667H6.66663C6.313 26.667 5.97387 26.5265 5.72382 26.2765C5.47377 26.0264 5.33329 25.6873 5.33329 25.3337V6.66699C5.33329 6.31337 5.47377 5.97423 5.72382 5.72418C5.97387 5.47413 6.313 5.33366 6.66663 5.33366H13.3333V9.33366C13.3333 10.3945 13.7547 11.4119 14.5049 12.1621C15.255 12.9122 16.2724 13.3337 17.3333 13.3337H21.3333V14.667C21.3333 15.0206 21.4738 15.3598 21.7238 15.6098C21.9739 15.8598 22.313 16.0003 22.6666 16.0003C23.0202 16.0003 23.3594 15.8598 23.6094 15.6098C23.8595 15.3598 24 15.0206 24 14.667V12.0003C24 12.0003 24 12.0003 24 11.9203C23.9861 11.7978 23.9593 11.6772 23.92 11.5603V11.4403C23.8559 11.3032 23.7703 11.1772 23.6666 11.067L15.6666 3.06699C15.5564 2.96328 15.4304 2.87777 15.2933 2.81366C15.2535 2.80801 15.2131 2.80801 15.1733 2.81366C15.0378 2.73598 14.8883 2.68612 14.7333 2.66699H6.66663C5.60576 2.66699 4.58834 3.08842 3.8382 3.83857C3.08805 4.58871 2.66663 5.60613 2.66663 6.66699V25.3337C2.66663 26.3945 3.08805 27.4119 3.8382 28.1621C4.58834 28.9122 5.60576 29.3337 6.66663 29.3337H16C16.3536 29.3337 16.6927 29.1932 16.9428 28.9431C17.1928 28.6931 17.3333 28.3539 17.3333 28.0003C17.3333 27.6467 17.1928 27.3076 16.9428 27.0575C16.6927 26.8075 16.3536 26.667 16 26.667ZM16 7.21366L19.4533 10.667H17.3333C16.9797 10.667 16.6405 10.5265 16.3905 10.2765C16.1404 10.0264 16 9.68728 16 9.33366V7.21366ZM9.33329 10.667C8.97967 10.667 8.64053 10.8075 8.39048 11.0575C8.14044 11.3076 7.99996 11.6467 7.99996 12.0003C7.99996 12.3539 8.14044 12.6931 8.39048 12.9431C8.64053 13.1932 8.97967 13.3337 9.33329 13.3337H10.6666C11.0202 13.3337 11.3594 13.1932 11.6094 12.9431C11.8595 12.6931 12 12.3539 12 12.0003C12 11.6467 11.8595 11.3076 11.6094 11.0575C11.3594 10.8075 11.0202 10.667 10.6666 10.667H9.33329ZM28.9466 27.0537L27.3866 25.507C27.8852 24.6367 28.0848 23.6269 27.9548 22.6323C27.8247 21.6377 27.3722 20.7132 26.6666 20.0003C26.0173 19.3279 25.1806 18.8666 24.2653 18.6765C23.3501 18.4864 22.3989 18.5764 21.5355 18.9347C20.6721 19.293 19.9367 19.903 19.425 20.6853C18.9133 21.4675 18.649 22.3857 18.6666 23.3203C18.662 24.1246 18.8678 24.916 19.2635 25.6162C19.6591 26.3164 20.231 26.901 20.9223 27.3121C21.6136 27.7231 22.4003 27.9462 23.2045 27.9594C24.0086 27.9725 24.8023 27.7752 25.5066 27.387L27.0533 28.947C27.1772 29.072 27.3247 29.1712 27.4872 29.2388C27.6497 29.3065 27.8239 29.3414 28 29.3414C28.176 29.3414 28.3502 29.3065 28.5127 29.2388C28.6752 29.1712 28.8227 29.072 28.9466 28.947C29.0716 28.823 29.1708 28.6756 29.2385 28.5131C29.3062 28.3506 29.341 28.1763 29.341 28.0003C29.341 27.8243 29.3062 27.65 29.2385 27.4876C29.1708 27.3251 29.0716 27.1776 28.9466 27.0537ZM24.72 24.7203C24.3391 25.0785 23.8361 25.2778 23.3133 25.2778C22.7905 25.2778 22.2874 25.0785 21.9066 24.7203C21.5396 24.3467 21.3337 23.8441 21.3333 23.3203C21.3305 23.0573 21.3811 22.7965 21.4819 22.5536C21.5828 22.3107 21.7318 22.0907 21.92 21.907C22.2754 21.5534 22.7522 21.3485 23.2533 21.3337C23.5229 21.3171 23.7929 21.3564 24.0466 21.4492C24.3002 21.5419 24.532 21.6861 24.7273 21.8726C24.9226 22.0591 25.0772 22.284 25.1815 22.5332C25.2858 22.7823 25.3375 23.0503 25.3333 23.3203C25.3223 23.8498 25.1017 24.3533 24.72 24.7203ZM17.3333 16.0003H9.33329C8.97967 16.0003 8.64053 16.1408 8.39048 16.3908C8.14044 16.6409 7.99996 16.98 7.99996 17.3337C7.99996 17.6873 8.14044 18.0264 8.39048 18.2765C8.64053 18.5265 8.97967 18.667 9.33329 18.667H17.3333C17.6869 18.667 18.0261 18.5265 18.2761 18.2765C18.5261 18.0264 18.6666 17.6873 18.6666 17.3337C18.6666 16.98 18.5261 16.6409 18.2761 16.3908C18.0261 16.1408 17.6869 16.0003 17.3333 16.0003ZM14.6666 24.0003C15.0202 24.0003 15.3594 23.8598 15.6094 23.6098C15.8595 23.3598 16 23.0206 16 22.667C16 22.3134 15.8595 21.9742 15.6094 21.7242C15.3594 21.4741 15.0202 21.3337 14.6666 21.3337H9.33329C8.97967 21.3337 8.64053 21.4741 8.39048 21.7242C8.14044 21.9742 7.99996 22.3134 7.99996 22.667C7.99996 23.0206 8.14044 23.3598 8.39048 23.6098C8.64053 23.8598 8.97967 24.0003 9.33329 24.0003H14.6666Z" fill="#6DF1B2"/>
</svg>
