<svg width="24" height="25" viewBox="0 0 24 25" fill="none" xmlns="http://www.w3.org/2000/svg">
  <path
    d="M19 2.5H5C4.20435 2.5 3.44129 2.81607 2.87868 3.37868C2.31607 3.94129 2 4.70435 2 5.5V6.67C1.99986 7.08294 2.08497 7.49147 2.25 7.87V7.93C2.39128 8.25097 2.59139 8.54266 2.84 8.79L9 14.91V21.5C8.99966 21.6699 9.04264 21.8372 9.12487 21.9859C9.20711 22.1346 9.32589 22.2599 9.47 22.35C9.62914 22.4486 9.81277 22.5006 10 22.5C10.1565 22.4991 10.3107 22.4614 10.45 22.39L14.45 20.39C14.6149 20.3069 14.7536 20.1798 14.8507 20.0227C14.9478 19.8656 14.9994 19.6847 15 19.5V14.91L21.12 8.79C21.3686 8.54266 21.5687 8.25097 21.71 7.93V7.87C21.8888 7.49443 21.9876 7.08578 22 6.67V5.5C22 4.70435 21.6839 3.94129 21.1213 3.37868C20.5587 2.81607 19.7956 2.5 19 2.5ZM13.29 13.79C13.1973 13.8834 13.124 13.9943 13.0742 14.1161C13.0245 14.2379 12.9992 14.3684 13 14.5V18.88L11 19.88V14.5C11.0008 14.3684 10.9755 14.2379 10.9258 14.1161C10.876 13.9943 10.8027 13.8834 10.71 13.79L5.41 8.5H18.59L13.29 13.79ZM20 6.5H4V5.5C4 5.23478 4.10536 4.98043 4.29289 4.79289C4.48043 4.60536 4.73478 4.5 5 4.5H19C19.2652 4.5 19.5196 4.60536 19.7071 4.79289C19.8946 4.98043 20 5.23478 20 5.5V6.5Z"/>
</svg>
