<svg width="24" height="24" viewBox="0 0 24 24" fill="none" xmlns="http://www.w3.org/2000/svg">
  <path
    d="M15.7319 7.20986C15.639 7.11613 15.5284 7.04174 15.4065 6.99097C15.2846 6.9402 15.1539 6.91406 15.0219 6.91406C14.8899 6.91406 14.7592 6.9402 14.6373 6.99097C14.5155 7.04174 14.4049 7.11613 14.3119 7.20986L6.86192 14.6699L3.73192 11.5299C3.6354 11.4366 3.52146 11.3633 3.3966 11.3141C3.27175 11.2649 3.13843 11.2408 3.00424 11.2431C2.87006 11.2454 2.73765 11.2741 2.61458 11.3276C2.4915 11.3811 2.38016 11.4583 2.28692 11.5549C2.19368 11.6514 2.12037 11.7653 2.07117 11.8902C2.02196 12.015 1.99783 12.1484 2.00015 12.2825C2.00247 12.4167 2.0312 12.5491 2.0847 12.6722C2.13819 12.7953 2.2154 12.9066 2.31192 12.9999L6.15192 16.8399C6.24489 16.9336 6.35549 17.008 6.47735 17.0588C6.59921 17.1095 6.72991 17.1357 6.86192 17.1357C6.99393 17.1357 7.12464 17.1095 7.2465 17.0588C7.36836 17.008 7.47896 16.9336 7.57192 16.8399L15.7319 8.67986C15.8334 8.58622 15.9144 8.47257 15.9698 8.34607C16.0252 8.21957 16.0539 8.08296 16.0539 7.94486C16.0539 7.80676 16.0252 7.67015 15.9698 7.54365C15.9144 7.41715 15.8334 7.3035 15.7319 7.20986Z"/>
  <path
    d="M21.4283 6.99097C21.5502 7.04174 21.6608 7.11613 21.7537 7.20986C21.8553 7.3035 21.9363 7.41715 21.9917 7.54365C22.0471 7.67015 22.0757 7.80676 22.0757 7.94486C22.0757 8.08296 22.0471 8.21957 21.9917 8.34607C21.9363 8.47257 21.8553 8.58622 21.7537 8.67986L13.5937 16.8399C13.5008 16.9336 13.3902 17.008 13.2683 17.0588C13.1465 17.1095 13.0158 17.1357 12.8837 17.1357C12.7517 17.1357 12.621 17.1095 12.4992 17.0588C12.3773 17.008 12.2667 16.9336 12.1737 16.8399C11.7631 16.4292 11.7668 15.7622 12.182 15.3562L12.8837 14.6699L20.3337 7.20986C20.4267 7.11613 20.5373 7.04174 20.6592 6.99097C20.781 6.9402 20.9117 6.91406 21.0437 6.91406C21.1758 6.91406 21.3065 6.9402 21.4283 6.99097Z"/>
</svg>
