<svg width="24" height="24" viewBox="0 0 18 21" fill="none" xmlns="http://www.w3.org/2000/svg">
  <path
    d="M16.9998 7.00013L10.9998 1.74013C10.4498 1.24817 9.73775 0.976196 8.99982 0.976196C8.26189 0.976196 7.54984 1.24817 6.99982 1.74013L0.99982 7.00013C0.682189 7.2842 0.42872 7.63269 0.256292 8.02237C0.0838639 8.41206 -0.00356722 8.83401 -0.000179864 9.26013V18.0001C-0.000179864 18.7958 0.315891 19.5588 0.8785 20.1215C1.44111 20.6841 2.20417 21.0001 2.99982 21.0001H14.9998C15.7955 21.0001 16.5585 20.6841 17.1211 20.1215C17.6838 19.5588 17.9998 18.7958 17.9998 18.0001V9.25013C18.0018 8.82569 17.9137 8.40567 17.7413 8.01781C17.5689 7.62995 17.3162 7.28309 16.9998 7.00013ZM10.9998 19.0001H6.99982V14.0001C6.99982 13.7349 7.10518 13.4806 7.29271 13.293C7.48025 13.1055 7.7346 13.0001 7.99982 13.0001H9.99982C10.265 13.0001 10.5194 13.1055 10.7069 13.293C10.8945 13.4806 10.9998 13.7349 10.9998 14.0001V19.0001ZM15.9998 18.0001C15.9998 18.2653 15.8945 18.5197 15.7069 18.7072C15.5194 18.8948 15.265 19.0001 14.9998 19.0001H12.9998V14.0001C12.9998 13.2045 12.6837 12.4414 12.1211 11.8788C11.5585 11.3162 10.7955 11.0001 9.99982 11.0001H7.99982C7.20417 11.0001 6.44111 11.3162 5.8785 11.8788C5.31589 12.4414 4.99982 13.2045 4.99982 14.0001V19.0001H2.99982C2.7346 19.0001 2.48025 18.8948 2.29271 18.7072C2.10518 18.5197 1.99982 18.2653 1.99982 18.0001V9.25013C2 9.10814 2.03041 8.96783 2.08904 8.83851C2.14766 8.70919 2.23315 8.59384 2.33982 8.50013L8.33982 3.25013C8.52231 3.08981 8.75691 3.00139 8.99982 3.00139C9.24273 3.00139 9.47733 3.08981 9.65982 3.25013L15.6598 8.50013C15.7665 8.59384 15.852 8.70919 15.9106 8.83851C15.9692 8.96783 15.9996 9.10814 15.9998 9.25013V18.0001Z"/>
</svg>
