<svg xmlns="http://www.w3.org/2000/svg" width="24" height="25" fill="none"><path fill="url(#logo_svg__a)" d="M23.87 11.665C23.683 11.205 19.33.5 15.975.5v.441c2.457 0 6.027 7.365 7.361 10.583h-1.51C21.273 10.186 17.17.5 13.983.5v.441c2.457 0 6.027 7.365 7.362 10.583h-1.51C19.289 10.19 15.187.5 12 .5v.441c2.457 0 6.027 7.365 7.361 10.583h-1.514C17.297 10.186 13.199.5 10.007.5v.441c2.457 0 6.027 7.365 7.362 10.583h-1.51C15.313 10.186 11.21.5 8.024.5v.441c2.533 0 6.266 7.86 7.488 10.888l.058.136H24l-.13-.3Z"></path><path fill="url(#logo_svg__b)" d="M8.024.5C4.674.5.31 11.205.13 11.665l-.127.305h8.43l.059-.137C9.719 8.797 13.443.937 15.98.937V.5H8.024Zm4.697.441c-2.916 1.917-6.09 9.417-6.568 10.583H4.64C5.973 8.306 9.547.94 11.998.94h.722Zm-1.988 0c-2.916 1.917-6.09 9.417-6.572 10.583H2.65C3.985 8.306 7.56.94 10.01.94h.722Zm-2.71 0h.722c-2.916 1.917-6.09 9.417-6.572 10.583H.663C1.997 8.306 5.563.94 8.023.94Zm.114 10.583h-1.51C7.96 8.306 11.53.94 13.991.94h.722c-2.921 1.917-6.095 9.417-6.577 10.583Z"></path><path fill="url(#logo_svg__c)" d="M15.976 24.495v-.441c-2.538 0-6.266-7.86-7.488-10.887l-.058-.137H0l.126.305C.311 13.79 4.67 24.5 8.02 24.5v-.442c-2.457 0-6.028-7.364-7.362-10.582h1.51c.55 1.338 4.652 11.024 7.84 11.024v-.442c-2.457 0-6.028-7.364-7.362-10.582h1.51c.55 1.338 4.652 11.024 7.84 11.024v-.442c-2.457 0-6.028-7.364-7.362-10.582h1.51c.546 1.334 4.648 11.02 7.835 11.02v-.442c-2.457 0-6.027-7.364-7.361-10.582h1.51c.563 1.338 4.665 11.024 7.848 11.024Z"></path><path fill="url(#logo_svg__d)" d="m15.566 13.025-.059.137C14.286 16.19 10.557 24.05 8.02 24.05v.442h7.956c3.35 0 7.713-10.705 7.893-11.165l.127-.305-8.43.004ZM9.29 24.05c2.916-1.916 6.09-9.412 6.568-10.582h1.514c-1.334 3.218-4.909 10.582-7.366 10.582h-.716Zm1.988 0c2.916-1.916 6.09-9.417 6.568-10.582h1.51c-1.334 3.218-4.905 10.582-7.361 10.582h-.717Zm1.988 0c2.916-1.916 6.09-9.417 6.568-10.582h1.51c-1.33 3.218-4.905 10.582-7.357 10.582h-.721Zm2.713 0h-.72c2.916-1.916 6.09-9.417 6.567-10.582h1.51c-1.334 3.218-4.904 10.582-7.357 10.582Z"></path><defs><linearGradient id="logo_svg__a" x1="13.731" x2="21.834" y1="2.246" y2="13.542" gradientUnits="userSpaceOnUse"><stop stop-color="#65F1C1"></stop><stop offset="1" stop-color="#00CEF8"></stop></linearGradient><linearGradient id="logo_svg__b" x1="15.833" x2="-0.03" y1="0.299" y2="11.92" gradientUnits="userSpaceOnUse"><stop stop-color="#65F1C1"></stop><stop offset="1" stop-color="#F4F286"></stop></linearGradient><linearGradient id="logo_svg__c" x1="11.031" x2="2.208" y1="24.04" y2="11.228" gradientUnits="userSpaceOnUse"><stop stop-color="#65F1C1"></stop><stop offset="1" stop-color="#F1F187"></stop></linearGradient><linearGradient id="logo_svg__d" x1="8.95" x2="23.383" y1="25.511" y2="12.351" gradientUnits="userSpaceOnUse"><stop stop-color="#65F1C1"></stop><stop offset="1" stop-color="#00CEF8"></stop></linearGradient></defs></svg>