<svg width="24" height="24" viewBox="0 0 24 24" fill="none" xmlns="http://www.w3.org/2000/svg">
  <path
    d="M17.2871 9.7071L18.5871 10.9971L6.99707 10.9971C6.73185 10.9971 6.4775 11.1025 6.28996 11.29C6.10243 11.4775 5.99707 11.7319 5.99707 11.9971C5.99707 12.2623 6.10243 12.5167 6.28996 12.7042C6.4775 12.8917 6.73185 12.9971 6.99707 12.9971L18.5871 12.9971L17.2871 14.2871C17.1933 14.3801 17.1189 14.4907 17.0682 14.6125C17.0174 14.7344 16.9913 14.8651 16.9913 14.9971C16.9913 15.1291 17.0174 15.2598 17.0682 15.3817C17.1189 15.5035 17.1933 15.6141 17.2871 15.7071C17.38 15.8008 17.4906 15.8752 17.6125 15.926C17.7344 15.9768 17.8651 16.0029 17.9971 16.0029C18.1291 16.0029 18.2598 15.9768 18.3816 15.926C18.5035 15.8752 18.6141 15.8008 18.7071 15.7071L21.7071 12.7071C21.8008 12.6141 21.8752 12.5035 21.926 12.3817C21.9767 12.2598 22.0029 12.1291 22.0029 11.9971C22.0029 11.8651 21.9767 11.7344 21.926 11.6125C21.8752 11.4907 21.8008 11.3801 21.7071 11.2871L18.7071 8.2871C18.5188 8.0988 18.2634 7.99301 17.9971 7.99301C17.7308 7.99301 17.4754 8.0988 17.2871 8.2871C17.0988 8.4754 16.993 8.7308 16.993 8.9971C16.993 9.2634 17.0988 9.5188 17.2871 9.7071ZM14.9971 17.9971L14.9971 15.9971C14.9971 15.7319 14.8917 15.4775 14.7042 15.29C14.5166 15.1025 14.2623 14.9971 13.9971 14.9971C13.7319 14.9971 13.4775 15.1025 13.29 15.29C13.1024 15.4775 12.9971 15.7319 12.9971 15.9971L12.9971 17.9971C12.9971 18.2623 12.8917 18.5167 12.7042 18.7042C12.5166 18.8917 12.2623 18.9971 11.9971 18.9971L4.99707 18.9971C4.73185 18.9971 4.4775 18.8917 4.28996 18.7042C4.10243 18.5167 3.99707 18.2623 3.99707 17.9971L3.99707 5.9971C3.99707 5.73188 4.10243 5.47753 4.28996 5.28999C4.4775 5.10246 4.73185 4.9971 4.99707 4.9971L11.9971 4.9971C12.2623 4.9971 12.5166 5.10246 12.7042 5.28999C12.8917 5.47753 12.9971 5.73188 12.9971 5.9971V7.9971C12.9971 8.26232 13.1024 8.51667 13.29 8.70421C13.4775 8.89174 13.7319 8.9971 13.9971 8.9971C14.2623 8.9971 14.5166 8.89174 14.7042 8.70421C14.8917 8.51667 14.9971 8.26232 14.9971 7.9971V5.9971C14.9971 5.20145 14.681 4.43839 14.1184 3.87578C13.5558 3.31317 12.7927 2.9971 11.9971 2.9971L4.99707 2.9971C4.20142 2.9971 3.43836 3.31317 2.87575 3.87578C2.31314 4.43839 1.99707 5.20145 1.99707 5.9971L1.99707 17.9971C1.99707 18.7928 2.31314 19.5558 2.87575 20.1184C3.43836 20.681 4.20142 20.9971 4.99707 20.9971L11.9971 20.9971C12.7927 20.9971 13.5558 20.681 14.1184 20.1184C14.681 19.5558 14.9971 18.7928 14.9971 17.9971Z"/>
</svg>
