<svg width="30" height="28" viewBox="0 0 30 28" fill="none" xmlns="http://www.w3.org/2000/svg">
<path d="M28.3333 0.666992H1.66659C1.31296 0.666992 0.973825 0.807468 0.723776 1.05752C0.473728 1.30756 0.333252 1.6467 0.333252 2.00033V7.33366C0.335571 8.15892 0.59309 8.96326 1.0705 9.63641C1.54792 10.3096 2.22185 10.8186 2.99992 11.0937V26.0003C2.99992 26.3539 3.14039 26.6931 3.39044 26.9431C3.64049 27.1932 3.97963 27.3337 4.33325 27.3337H25.6666C26.0202 27.3337 26.3593 27.1932 26.6094 26.9431C26.8594 26.6931 26.9999 26.3539 26.9999 26.0003V11.0937C27.778 10.8186 28.4519 10.3096 28.9293 9.63641C29.4067 8.96326 29.6643 8.15892 29.6666 7.33366V2.00033C29.6666 1.6467 29.5261 1.30756 29.2761 1.05752C29.026 0.807468 28.6869 0.666992 28.3333 0.666992V0.666992ZM18.9999 3.33366H21.6666V7.33366C21.6666 7.68728 21.5261 8.02642 21.2761 8.27647C21.026 8.52652 20.6869 8.66699 20.3333 8.66699C19.9796 8.66699 19.6405 8.52652 19.3904 8.27647C19.1404 8.02642 18.9999 7.68728 18.9999 7.33366V3.33366ZM13.6666 3.33366H16.3333V7.33366C16.3333 7.68728 16.1928 8.02642 15.9427 8.27647C15.6927 8.52652 15.3535 8.66699 14.9999 8.66699C14.6463 8.66699 14.3072 8.52652 14.0571 8.27647C13.8071 8.02642 13.6666 7.68728 13.6666 7.33366V3.33366ZM8.33325 3.33366H10.9999V7.33366C10.9999 7.68728 10.8594 8.02642 10.6094 8.27647C10.3593 8.52652 10.0202 8.66699 9.66658 8.66699C9.31296 8.66699 8.97382 8.52652 8.72378 8.27647C8.47373 8.02642 8.33325 7.68728 8.33325 7.33366V3.33366ZM4.33325 8.66699C3.97963 8.66699 3.64049 8.52652 3.39044 8.27647C3.14039 8.02642 2.99992 7.68728 2.99992 7.33366V3.33366H5.66658V7.33366C5.66658 7.68728 5.52611 8.02642 5.27606 8.27647C5.02601 8.52652 4.68687 8.66699 4.33325 8.66699ZM17.6666 24.667H12.3333V19.3337C12.3333 18.6264 12.6142 17.9481 13.1143 17.448C13.6144 16.9479 14.2927 16.667 14.9999 16.667C15.7072 16.667 16.3854 16.9479 16.8855 17.448C17.3856 17.9481 17.6666 18.6264 17.6666 19.3337V24.667ZM24.3333 24.667H20.3333V19.3337C20.3333 17.9192 19.7713 16.5626 18.7712 15.5624C17.771 14.5622 16.4144 14.0003 14.9999 14.0003C13.5854 14.0003 12.2289 14.5622 11.2287 15.5624C10.2285 16.5626 9.66658 17.9192 9.66658 19.3337V24.667H5.66658V11.0937C6.15668 10.9117 6.60877 10.6405 6.99992 10.2937C7.73328 10.9496 8.68268 11.3122 9.66658 11.3122C10.6505 11.3122 11.5999 10.9496 12.3333 10.2937C13.0666 10.9496 14.016 11.3122 14.9999 11.3122C15.9838 11.3122 16.9332 10.9496 17.6666 10.2937C18.3999 10.9496 19.3493 11.3122 20.3333 11.3122C21.3172 11.3122 22.2666 10.9496 22.9999 10.2937C23.3911 10.6405 23.8432 10.9117 24.3333 11.0937V24.667ZM26.9999 7.33366C26.9999 7.68728 26.8594 8.02642 26.6094 8.27647C26.3593 8.52652 26.0202 8.66699 25.6666 8.66699C25.313 8.66699 24.9738 8.52652 24.7238 8.27647C24.4737 8.02642 24.3333 7.68728 24.3333 7.33366V3.33366H26.9999V7.33366Z" fill="#6DF1B2"/>
</svg>
