<svg width="32" height="32" viewBox="0 0 32 32" fill="none" xmlns="http://www.w3.org/2000/svg">
<g clip-path="url(#clip0_37858_42912)">
<path d="M32 16C32 24.8365 24.8365 32 16 32C7.1635 32 0 24.8365 0 16C0 16.0038 16 0.00175 16 0C24.8365 0 32 7.1635 32 16Z" fill="#0052B4"/>
<path d="M15.957 15.9998H15.9998C15.9998 15.9855 15.9998 15.9715 15.9998 15.957C15.9856 15.9713 15.9713 15.9856 15.957 15.9998Z" fill="#F0F0F0"/>
<path d="M16 8.34781C16 5.5325 16 3.68781 16 0H15.9973C7.162 0.0015 0 7.16431 0 16H8.34781V11.2993L13.0486 16H15.9572C15.9715 15.9858 15.9858 15.9715 16.0001 15.9572C16.0001 14.8793 16.0001 13.9174 16.0001 13.0486L11.2992 8.34781H16Z" fill="#F0F0F0"/>
<path d="M8.09466 2.08691C5.59223 3.51185 3.51185 5.59223 2.08691 8.09466V16H6.26085V6.26098V6.26085H16C16 4.94441 16 3.69029 16 2.08691H8.09466Z" fill="#D80027"/>
<path d="M15.9998 14.0322L10.3152 8.34766C10.3152 8.34766 8.34766 8.34778 8.34766 8.34766V8.34778L15.9997 15.9998H15.9998C15.9998 15.9998 15.9998 14.6431 15.9998 14.0322Z" fill="#D80027"/>
<path d="M27.7081 11.8721L28.0534 12.9349H29.171L28.2669 13.5918L28.6122 14.6546L27.7081 13.9978L26.8039 14.6546L27.1493 13.5918L26.2451 12.9349H27.3627L27.7081 11.8721Z" fill="#D80027"/>
<path d="M23.7129 19.5244L24.231 21.1188H25.9073L24.5511 22.104L25.0692 23.6984L23.7129 22.713L22.3567 23.6984L22.8748 22.104L21.5186 21.1188H23.1949L23.7129 19.5244Z" fill="#D80027"/>
<path d="M23.8642 7.00293L24.296 8.33162H25.6929L24.5626 9.15255L24.9944 10.4812L23.8642 9.65999L22.7341 10.4812L23.1658 9.15255L22.0356 8.33162H23.4325L23.8642 7.00293Z" fill="#D80027"/>
<path d="M20.0201 11.8262L20.5381 13.4205H22.2144L20.8582 14.4058L21.3763 16.0001L20.0201 15.0148L18.6638 16.0001L19.1819 14.4058L17.8257 13.4205H19.502L20.0201 11.8262Z" fill="#D80027"/>
</g>
<defs>
<clipPath id="clip0_37858_42912">
<rect width="32" height="32" fill="white"/>
</clipPath>
</defs>
</svg>
