<svg width="16" height="16" viewBox="0 0 16 16" fill="none" xmlns="http://www.w3.org/2000/svg">
  <path
    d="M10.4732 8.47338C11.1268 7.95915 11.6039 7.25399 11.838 6.456C12.0722 5.65802 12.0518 4.80689 11.7797 4.02102C11.5076 3.23516 10.9974 2.55364 10.3199 2.07128C9.64247 1.58892 8.83151 1.32971 7.99988 1.32971C7.16824 1.32971 6.35729 1.58892 5.67983 2.07128C5.00237 2.55364 4.49211 3.23516 4.22002 4.02102C3.94793 4.80689 3.92755 5.65802 4.16172 6.456C4.39588 7.25399 4.87295 7.95915 5.52654 8.47338C4.40659 8.92207 3.4294 9.66627 2.69914 10.6267C1.96887 11.587 1.51292 12.7276 1.37988 13.9267C1.37025 14.0143 1.37795 14.1028 1.40256 14.1874C1.42717 14.272 1.46819 14.3509 1.52328 14.4196C1.63455 14.5584 1.7964 14.6473 1.97321 14.6667C2.15002 14.6862 2.32732 14.6346 2.46609 14.5233C2.60487 14.412 2.69376 14.2502 2.71321 14.0734C2.8596 12.7702 3.481 11.5666 4.45869 10.6926C5.43638 9.81856 6.70181 9.33539 8.01321 9.33539C9.32461 9.33539 10.59 9.81856 11.5677 10.6926C12.5454 11.5666 13.1668 12.7702 13.3132 14.0734C13.3313 14.2372 13.4095 14.3885 13.5326 14.4981C13.6557 14.6076 13.8151 14.6677 13.9799 14.6667H14.0532C14.228 14.6466 14.3877 14.5582 14.4976 14.4209C14.6075 14.2835 14.6586 14.1083 14.6399 13.9334C14.5062 12.7308 14.0478 11.5874 13.3138 10.6255C12.5798 9.66366 11.5978 8.91969 10.4732 8.47338ZM7.99988 8.00004C7.47246 8.00004 6.95689 7.84364 6.51836 7.55063C6.07982 7.25761 5.73803 6.84113 5.5362 6.35387C5.33436 5.8666 5.28155 5.33042 5.38445 4.81313C5.48734 4.29585 5.74132 3.8207 6.11426 3.44776C6.4872 3.07482 6.96235 2.82084 7.47964 2.71795C7.99692 2.61505 8.5331 2.66786 9.02037 2.8697C9.50764 3.07153 9.92411 3.41332 10.2171 3.85186C10.5101 4.29039 10.6665 4.80596 10.6665 5.33338C10.6665 6.04062 10.3856 6.7189 9.88549 7.21899C9.3854 7.71909 8.70712 8.00004 7.99988 8.00004Z"/>
</svg>
