<svg width="20" height="28" viewBox="0 0 20 28" fill="none" xmlns="http://www.w3.org/2000/svg">
<path d="M10.9465 19.7203L10.7465 19.5603C10.6722 19.5099 10.5915 19.4695 10.5065 19.4403L10.2665 19.3337C10.0503 19.2885 9.82619 19.2977 9.6144 19.3605C9.40262 19.4234 9.20976 19.5378 9.05317 19.6937C8.9354 19.8233 8.84069 19.9721 8.77317 20.1337C8.67227 20.3766 8.64548 20.644 8.69618 20.9021C8.74688 21.1602 8.8728 21.3976 9.0581 21.5843C9.2434 21.771 9.47979 21.8987 9.73752 21.9514C9.99525 22.0041 10.2628 21.9794 10.5065 21.8803C10.6658 21.803 10.8139 21.7043 10.9465 21.587C11.1315 21.3995 11.2568 21.1614 11.3067 20.9027C11.3565 20.6441 11.3286 20.3765 11.2265 20.1337C11.16 19.9795 11.065 19.8392 10.9465 19.7203V19.7203ZM15.3332 0.666992H4.6665C3.60564 0.666992 2.58822 1.08842 1.83808 1.83857C1.08793 2.58871 0.666504 3.60613 0.666504 4.66699V23.3337C0.666504 24.3945 1.08793 25.4119 1.83808 26.1621C2.58822 26.9122 3.60564 27.3337 4.6665 27.3337H15.3332C16.394 27.3337 17.4115 26.9122 18.1616 26.1621C18.9117 25.4119 19.3332 24.3945 19.3332 23.3337V4.66699C19.3332 3.60613 18.9117 2.58871 18.1616 1.83857C17.4115 1.08842 16.394 0.666992 15.3332 0.666992ZM16.6665 23.3337C16.6665 23.6873 16.526 24.0264 16.276 24.2765C16.0259 24.5265 15.6868 24.667 15.3332 24.667H4.6665C4.31288 24.667 3.97374 24.5265 3.7237 24.2765C3.47365 24.0264 3.33317 23.6873 3.33317 23.3337V4.66699C3.33317 4.31337 3.47365 3.97423 3.7237 3.72418C3.97374 3.47413 4.31288 3.33366 4.6665 3.33366H15.3332C15.6868 3.33366 16.0259 3.47413 16.276 3.72418C16.526 3.97423 16.6665 4.31337 16.6665 4.66699V23.3337Z" fill="#6DF1B2"/>
</svg>
