<svg width="22" height="28" viewBox="0 0 22 28" fill="none" xmlns="http://www.w3.org/2000/svg">
<path d="M10.9997 16.667C10.6461 16.667 10.3069 16.8075 10.0569 17.0575C9.80682 17.3076 9.66634 17.6467 9.66634 18.0003V20.667C9.66634 21.0206 9.80682 21.3598 10.0569 21.6098C10.3069 21.8598 10.6461 22.0003 10.9997 22.0003C11.3533 22.0003 11.6924 21.8598 11.9425 21.6098C12.1925 21.3598 12.333 21.0206 12.333 20.667V18.0003C12.333 17.6467 12.1925 17.3076 11.9425 17.0575C11.6924 16.8075 11.3533 16.667 10.9997 16.667ZM11.5063 12.7737C11.265 12.6617 10.9957 12.6246 10.733 12.667L10.493 12.747L10.253 12.867L10.053 13.027C9.9262 13.1547 9.82656 13.3068 9.76011 13.4741C9.69365 13.6414 9.66176 13.8204 9.66634 14.0003C9.66533 14.1758 9.69896 14.3497 9.76531 14.5122C9.83167 14.6746 9.92943 14.8224 10.053 14.947C10.1798 15.0684 10.3293 15.1635 10.493 15.227C10.6512 15.3016 10.8248 15.3382 10.9997 15.3337C11.1752 15.3347 11.3491 15.301 11.5116 15.2347C11.674 15.1683 11.8218 15.0706 11.9463 14.947C12.0699 14.8224 12.1677 14.6746 12.234 14.5122C12.3004 14.3497 12.334 14.1758 12.333 14.0003C12.334 13.8248 12.3004 13.6509 12.234 13.4884C12.1677 13.326 12.0699 13.1782 11.9463 13.0537C11.8167 12.9359 11.6679 12.8412 11.5063 12.7737ZM21.6663 9.92032C21.6525 9.79784 21.6256 9.67717 21.5863 9.56033V9.44032C21.5222 9.30323 21.4367 9.17721 21.333 9.06699V9.06699L13.333 1.06699C13.2228 0.96328 13.0968 0.877767 12.9597 0.813659H12.8263C12.6967 0.74433 12.5574 0.694888 12.413 0.666992H4.33301C3.27214 0.666992 2.25473 1.08842 1.50458 1.83857C0.754435 2.58871 0.333008 3.60613 0.333008 4.66699V23.3337C0.333008 24.3945 0.754435 25.4119 1.50458 26.1621C2.25473 26.9122 3.27214 27.3337 4.33301 27.3337H17.6663C18.7272 27.3337 19.7446 26.9122 20.4948 26.1621C21.2449 25.4119 21.6663 24.3945 21.6663 23.3337V10.0003C21.6663 10.0003 21.6663 10.0003 21.6663 9.92032ZM13.6663 5.21366L17.1197 8.66699H14.9997C14.6461 8.66699 14.3069 8.52652 14.0569 8.27647C13.8068 8.02642 13.6663 7.68728 13.6663 7.33366V5.21366ZM18.9997 23.3337C18.9997 23.6873 18.8592 24.0264 18.6092 24.2765C18.3591 24.5265 18.02 24.667 17.6663 24.667H4.33301C3.97939 24.667 3.64025 24.5265 3.3902 24.2765C3.14015 24.0264 2.99967 23.6873 2.99967 23.3337V4.66699C2.99967 4.31337 3.14015 3.97423 3.3902 3.72418C3.64025 3.47413 3.97939 3.33366 4.33301 3.33366H10.9997V7.33366C10.9997 8.39452 11.4211 9.41194 12.1712 10.1621C12.9214 10.9122 13.9388 11.3337 14.9997 11.3337H18.9997V23.3337Z" fill="#6DF1B2"/>
</svg>
