<svg width="32" height="32" viewBox="0 0 32 32" fill="none" xmlns="http://www.w3.org/2000/svg">
<g clip-path="url(#clip0_37858_42937)">
<path d="M0 15.9999C0 22.8793 4.342 28.744 10.4347 31.0047L11.8261 15.9999L10.4347 0.995117C4.342 3.25587 0 9.12049 0 15.9999Z" fill="#6DA544"/>
<path d="M31.9999 16C31.9999 7.1635 24.8364 0 15.9999 0C14.0428 0 12.1679 0.352063 10.4346 0.995188V31.0048C12.1679 31.648 14.0428 32 15.9999 32C24.8364 32 31.9999 24.8365 31.9999 16Z" fill="#D80027"/>
<path d="M10.4348 21.5649C13.5084 21.5649 16 19.0733 16 15.9998C16 12.9262 13.5084 10.4346 10.4348 10.4346C7.36125 10.4346 4.86963 12.9262 4.86963 15.9998C4.86963 19.0733 7.36125 21.5649 10.4348 21.5649Z" fill="#FFDA44"/>
<path d="M7.3042 13.2178V16.696C7.3042 18.4249 8.7057 19.8265 10.4346 19.8265C12.1636 19.8265 13.5651 18.425 13.5651 16.696V13.2178H7.3042Z" fill="#D80027"/>
<path d="M10.4346 17.7394C9.85924 17.7394 9.39111 17.2713 9.39111 16.6959V15.3047H11.4781V16.696C11.4781 17.2713 11.0099 17.7394 10.4346 17.7394Z" fill="#F0F0F0"/>
</g>
<defs>
<clipPath id="clip0_37858_42937">
<rect width="32" height="32" fill="white"/>
</clipPath>
</defs>
</svg>
