<svg width="22" height="21" viewBox="0 0 22 21" fill="none" xmlns="http://www.w3.org/2000/svg">
<path d="M21.2647 0.927779C20.98 0.690913 20.6364 0.535675 20.2704 0.478584C19.9045 0.421494 19.5299 0.464688 19.1866 0.603569L1.26566 7.83892C0.88241 7.9966 0.556176 8.26711 0.33026 8.61454C0.104343 8.96196 -0.0105725 9.36988 0.000764965 9.78415C0.0121025 10.1984 0.149157 10.5994 0.393738 10.934C0.638319 11.2685 0.978859 11.5208 1.37016 11.6573L4.99516 12.918L7.01566 19.5997C7.04312 19.6889 7.08297 19.7739 7.13404 19.852C7.14179 19.864 7.15272 19.873 7.16096 19.8846C7.21996 19.967 7.29127 20.0397 7.37239 20.1004C7.39546 20.118 7.41755 20.1345 7.44221 20.1501C7.53714 20.2131 7.64228 20.2591 7.75294 20.2862L7.76478 20.2872L7.77149 20.2901C7.83802 20.3036 7.90574 20.3105 7.97364 20.3106C7.98017 20.3106 7.98597 20.3074 7.99244 20.3073C8.0949 20.3055 8.19647 20.2879 8.29353 20.255C8.31611 20.2473 8.33546 20.2345 8.35737 20.2252C8.42975 20.1952 8.49832 20.1567 8.56166 20.1106C8.61238 20.0679 8.66312 20.0251 8.71388 19.9824L11.416 16.9991L15.4463 20.1211C15.8011 20.3974 16.2379 20.5475 16.6875 20.5479C17.1587 20.5473 17.6154 20.3847 17.9809 20.0874C18.3465 19.7901 18.5987 19.3762 18.6954 18.9151L21.958 2.89849C22.032 2.53801 22.0065 2.16421 21.8844 1.81708C21.7623 1.46995 21.5481 1.16255 21.2647 0.927779ZM8.37016 13.2364C8.2315 13.3745 8.13672 13.5505 8.0977 13.7422L7.78819 15.2462L7.00413 12.6532L11.0694 10.5362L8.37016 13.2364ZM16.6719 18.5401L11.9092 14.8506C11.71 14.6966 11.46 14.6234 11.2092 14.6455C10.9583 14.6675 10.725 14.7833 10.5557 14.9697L9.69029 15.9249L9.99613 14.4385L17.0791 7.35549C17.2482 7.18665 17.3512 6.96285 17.3695 6.72461C17.3878 6.48638 17.3201 6.24947 17.1788 6.05681C17.0375 5.86414 16.8319 5.72845 16.5992 5.67433C16.3664 5.6202 16.122 5.65121 15.9102 5.76174L5.74491 11.0544L2.02055 9.69146L19.999 2.49905L16.6719 18.5401Z" fill="#6DF1B2"/>
</svg>
