<svg width="10" height="14" viewBox="0 0 10 14" fill="none" xmlns="http://www.w3.org/2000/svg">
<path d="M8.77326 6.05261L3.11992 0.399281C2.99597 0.274309 2.84851 0.175117 2.68603 0.107425C2.52355 0.0397335 2.34927 0.00488281 2.17326 0.00488281C1.99724 0.00488281 1.82297 0.0397335 1.66049 0.107425C1.49801 0.175117 1.35054 0.274309 1.22659 0.399281C0.978256 0.649097 0.838867 0.987033 0.838867 1.33928C0.838867 1.69153 0.978256 2.02946 1.22659 2.27928L5.94659 6.99928L1.22659 11.7193C0.978256 11.9691 0.838867 12.307 0.838867 12.6593C0.838867 13.0115 0.978256 13.3495 1.22659 13.5993C1.35118 13.7229 1.49893 13.8206 1.66138 13.887C1.82383 13.9533 1.99778 13.987 2.17326 13.9859C2.34873 13.987 2.52268 13.9533 2.68513 13.887C2.84758 13.8206 2.99534 13.7229 3.11992 13.5993L8.77326 7.94595C8.89823 7.822 8.99742 7.67453 9.06511 7.51205C9.1328 7.34957 9.16765 7.1753 9.16765 6.99928C9.16765 6.82326 9.1328 6.64899 9.06511 6.48651C8.99742 6.32403 8.89823 6.17656 8.77326 6.05261Z" fill="#6DF1B2"/>
</svg>
