<svg width="8" height="12" viewBox="0 0 8 12" fill="none" xmlns="http://www.w3.org/2000/svg">
<path d="M1.17067 1.0003C0.984424 1.18766 0.879882 1.44111 0.879882 1.7053C0.879882 1.96948 0.984424 2.22293 1.17067 2.4103L4.71068 6.0003L1.17068 9.5403C0.984424 9.72766 0.879883 9.98111 0.879883 10.2453C0.879883 10.5095 0.984424 10.7629 1.17068 10.9503C1.26364 11.044 1.37424 11.1184 1.4961 11.1692C1.61796 11.22 1.74866 11.2461 1.88068 11.2461C2.01269 11.2461 2.14339 11.22 2.26525 11.1692C2.38711 11.1184 2.49771 11.044 2.59068 10.9503L6.83067 6.7103C6.9244 6.61733 6.9988 6.50673 7.04957 6.38487C7.10033 6.26301 7.12647 6.13231 7.12647 6.0003C7.12647 5.86828 7.10033 5.73758 7.04957 5.61572C6.9988 5.49386 6.9244 5.38326 6.83067 5.2903L2.59067 1.0003C2.49771 0.906568 2.38711 0.832174 2.26525 0.781406C2.14339 0.730637 2.01269 0.704498 1.88067 0.704498C1.74866 0.704498 1.61796 0.730637 1.4961 0.781406C1.37424 0.832174 1.26364 0.906568 1.17067 1.0003Z" fill="#748887"/>
</svg>
