<svg width="28" height="28" viewBox="0 0 28 28" fill="none" xmlns="http://www.w3.org/2000/svg">
<path d="M13.9998 0.666992C11.3628 0.666992 8.7849 1.44898 6.59224 2.91406C4.39958 4.37915 2.69062 6.46153 1.68145 8.89788C0.672281 11.3342 0.408237 14.0151 0.922706 16.6015C1.43718 19.1879 2.70705 21.5637 4.57175 23.4284C6.43645 25.2931 8.81223 26.563 11.3986 27.0775C13.9851 27.5919 16.6659 27.3279 19.1023 26.3187C21.5386 25.3096 23.621 23.6006 25.0861 21.4079C26.5512 19.2153 27.3332 16.6374 27.3332 14.0003C27.3332 12.2494 26.9883 10.5156 26.3182 8.89788C25.6482 7.2802 24.666 5.81035 23.4279 4.57224C22.1898 3.33412 20.72 2.35199 19.1023 1.68193C17.4846 1.01187 15.7508 0.666992 13.9998 0.666992V0.666992ZM13.9998 24.667C11.8902 24.667 9.82788 24.0414 8.07376 22.8693C6.31964 21.6973 4.95246 20.0314 4.14513 18.0823C3.33779 16.1332 3.12656 13.9885 3.53813 11.9194C3.94971 9.85023 4.96561 7.94961 6.45737 6.45785C7.94913 4.96609 9.84975 3.95019 11.9189 3.53862C13.988 3.12704 16.1327 3.33828 18.0818 4.14561C20.0309 4.95295 21.6968 6.32012 22.8689 8.07424C24.0409 9.82837 24.6665 11.8907 24.6665 14.0003C24.6665 16.8293 23.5427 19.5424 21.5423 21.5428C19.5419 23.5432 16.8288 24.667 13.9998 24.667V24.667ZM19.3332 12.667H15.3332V8.66699C15.3332 8.31337 15.1927 7.97423 14.9427 7.72418C14.6926 7.47414 14.3535 7.33366 13.9998 7.33366C13.6462 7.33366 13.3071 7.47414 13.057 7.72418C12.807 7.97423 12.6665 8.31337 12.6665 8.66699V12.667H8.66651C8.31289 12.667 7.97375 12.8075 7.7237 13.0575C7.47365 13.3076 7.33318 13.6467 7.33318 14.0003C7.33318 14.3539 7.47365 14.6931 7.7237 14.9431C7.97375 15.1932 8.31289 15.3337 8.66651 15.3337H12.6665V19.3337C12.6665 19.6873 12.807 20.0264 13.057 20.2765C13.3071 20.5265 13.6462 20.667 13.9998 20.667C14.3535 20.667 14.6926 20.5265 14.9427 20.2765C15.1927 20.0264 15.3332 19.6873 15.3332 19.3337V15.3337H19.3332C19.6868 15.3337 20.0259 15.1932 20.276 14.9431C20.526 14.6931 20.6665 14.3539 20.6665 14.0003C20.6665 13.6467 20.526 13.3076 20.276 13.0575C20.0259 12.8075 19.6868 12.667 19.3332 12.667Z" fill="#6DF1B2"/>
</svg>
