<svg width="28" height="24" viewBox="0 0 28 24" fill="none" xmlns="http://www.w3.org/2000/svg">
<path d="M26.2932 12C26.9569 11.2698 27.3273 10.3201 27.3332 9.33333C27.3332 8.27247 26.9117 7.25505 26.1616 6.50491C25.4115 5.75476 24.394 5.33333 23.3332 5.33333H16.4265C16.6395 4.7309 16.7051 4.08621 16.6177 3.45324C16.5304 2.82026 16.2927 2.21742 15.9245 1.69518C15.5563 1.17294 15.0684 0.746503 14.5016 0.451571C13.9347 0.156639 13.3055 0.00179402 12.6665 0H4.6665C3.60564 0 2.58822 0.421427 1.83808 1.17157C1.08793 1.92172 0.666504 2.93913 0.666504 4C0.672385 4.98674 1.04279 5.93648 1.7065 6.66667C1.05056 7.40003 0.687928 8.34942 0.687928 9.33333C0.687928 10.3172 1.05056 11.2666 1.7065 12C1.05056 12.7334 0.687928 13.6828 0.687928 14.6667C0.687928 15.6506 1.05056 16.6 1.7065 17.3333C1.04279 18.0635 0.672385 19.0133 0.666504 20C0.666504 21.0609 1.08793 22.0783 1.83808 22.8284C2.58822 23.5786 3.60564 24 4.6665 24H23.3332C24.1035 23.9959 24.8563 23.7694 25.501 23.3478C26.1458 22.9262 26.655 22.3273 26.9676 21.6233C27.2803 20.9192 27.3829 20.1398 27.2633 19.3788C27.1436 18.6178 26.8068 17.9075 26.2932 17.3333C26.9491 16.6 27.3117 15.6506 27.3117 14.6667C27.3117 13.6828 26.9491 12.7334 26.2932 12ZM12.6665 21.3333H4.6665C4.31288 21.3333 3.97374 21.1929 3.72369 20.9428C3.47365 20.6928 3.33317 20.3536 3.33317 20C3.33317 19.6464 3.47365 19.3072 3.72369 19.0572C3.97374 18.8071 4.31288 18.6667 4.6665 18.6667H12.6665C13.0201 18.6667 13.3593 18.8071 13.6093 19.0572C13.8594 19.3072 13.9998 19.6464 13.9998 20C13.9998 20.3536 13.8594 20.6928 13.6093 20.9428C13.3593 21.1929 13.0201 21.3333 12.6665 21.3333ZM12.6665 16H4.6665C4.31288 16 3.97374 15.8595 3.72369 15.6095C3.47365 15.3594 3.33317 15.0203 3.33317 14.6667C3.33317 14.313 3.47365 13.9739 3.72369 13.7239C3.97374 13.4738 4.31288 13.3333 4.6665 13.3333H12.6665C13.0201 13.3333 13.3593 13.4738 13.6093 13.7239C13.8594 13.9739 13.9998 14.313 13.9998 14.6667C13.9998 15.0203 13.8594 15.3594 13.6093 15.6095C13.3593 15.8595 13.0201 16 12.6665 16ZM12.6665 10.6667H4.6665C4.31288 10.6667 3.97374 10.5262 3.72369 10.2761C3.47365 10.0261 3.33317 9.68695 3.33317 9.33333C3.33317 8.97971 3.47365 8.64057 3.72369 8.39052C3.97374 8.14048 4.31288 8 4.6665 8H12.6665C13.0201 8 13.3593 8.14048 13.6093 8.39052C13.8594 8.64057 13.9998 8.97971 13.9998 9.33333C13.9998 9.68695 13.8594 10.0261 13.6093 10.2761C13.3593 10.5262 13.0201 10.6667 12.6665 10.6667ZM12.6665 5.33333H4.6665C4.31288 5.33333 3.97374 5.19286 3.72369 4.94281C3.47365 4.69276 3.33317 4.35362 3.33317 4C3.33317 3.64638 3.47365 3.30724 3.72369 3.05719C3.97374 2.80714 4.31288 2.66667 4.6665 2.66667H12.6665C13.0201 2.66667 13.3593 2.80714 13.6093 3.05719C13.8594 3.30724 13.9998 3.64638 13.9998 4C13.9998 4.35362 13.8594 4.69276 13.6093 4.94281C13.3593 5.19286 13.0201 5.33333 12.6665 5.33333ZM24.2532 20.9467C24.135 21.0713 23.9922 21.1701 23.8338 21.2366C23.6754 21.3032 23.5049 21.3361 23.3332 21.3333H16.4265C16.7462 20.4732 16.7462 19.5268 16.4265 18.6667H23.3332C23.6868 18.6667 24.0259 18.8071 24.276 19.0572C24.526 19.3072 24.6665 19.6464 24.6665 20C24.664 20.1774 24.6262 20.3524 24.5552 20.515C24.4843 20.6775 24.3816 20.8243 24.2532 20.9467V20.9467ZM24.2532 15.6133C24.135 15.738 23.9922 15.8367 23.8338 15.9033C23.6754 15.9699 23.5049 16.0028 23.3332 16H16.4265C16.7462 15.1399 16.7462 14.1935 16.4265 13.3333H23.3332C23.6868 13.3333 24.0259 13.4738 24.276 13.7239C24.526 13.9739 24.6665 14.313 24.6665 14.6667C24.664 14.844 24.6262 15.0191 24.5552 15.1817C24.4843 15.3442 24.3816 15.491 24.2532 15.6133V15.6133ZM24.2532 10.28C24.135 10.4047 23.9922 10.5034 23.8338 10.57C23.6754 10.6365 23.5049 10.6695 23.3332 10.6667H16.4265C16.7462 9.80653 16.7462 8.86014 16.4265 8H23.3332C23.6868 8 24.0259 8.14048 24.276 8.39052C24.526 8.64057 24.6665 8.97971 24.6665 9.33333C24.664 9.51069 24.6262 9.68577 24.5552 9.84832C24.4843 10.0109 24.3816 10.1576 24.2532 10.28V10.28Z" fill="#6DF1B2"/>
</svg>
