<svg width="22" height="26" viewBox="0 0 22 26" fill="none" xmlns="http://www.w3.org/2000/svg">
<path d="M19.4 8.45301L20.6133 7.25301C20.8644 7.00194 21.0054 6.66141 21.0054 6.30634C21.0054 5.95127 20.8644 5.61075 20.6133 5.35967C20.3622 5.1086 20.0217 4.96755 19.6666 4.96755C19.3116 4.96755 18.971 5.1086 18.72 5.35967L17.52 6.57301C15.6514 5.12748 13.3557 4.34319 10.9933 4.34319C8.63083 4.34319 6.33522 5.12748 4.46662 6.57301L3.25329 5.34634C3.00045 5.09527 2.65823 4.95492 2.30191 4.95617C1.94559 4.95742 1.60436 5.10017 1.35329 5.35301C1.10222 5.60585 0.961867 5.94807 0.963118 6.30439C0.964368 6.66071 1.10711 7.00194 1.35995 7.25301L2.58662 8.46634C1.12397 10.3297 0.330341 12.6308 0.333287 14.9997C0.328933 16.7002 0.731238 18.3772 1.50665 19.8907C2.28207 21.4042 3.40811 22.7104 4.79088 23.7003C6.17364 24.6902 7.77305 25.3351 9.4557 25.5813C11.1384 25.8275 12.8555 25.6678 14.4639 25.1155C16.0723 24.5633 17.5253 23.6345 18.7019 22.4066C19.8784 21.1786 20.7442 19.6872 21.2273 18.0567C21.7103 16.4262 21.7965 14.7038 21.4786 13.0332C21.1607 11.3626 20.448 9.79221 19.4 8.45301V8.45301ZM11 22.9997C9.4177 22.9997 7.87099 22.5305 6.55539 21.6514C5.2398 20.7724 4.21442 19.523 3.60892 18.0611C3.00342 16.5993 2.84499 14.9908 3.15367 13.439C3.46235 11.8871 4.22428 10.4616 5.3431 9.34282C6.46192 8.224 7.88738 7.46207 9.43923 7.15339C10.9911 6.84471 12.5996 7.00314 14.0614 7.60864C15.5232 8.21414 16.7727 9.23952 17.6517 10.5551C18.5308 11.8707 19 13.4174 19 14.9997C19 17.1214 18.1571 19.1562 16.6568 20.6565C15.1565 22.1568 13.1217 22.9997 11 22.9997ZM8.33329 2.99967H13.6666C14.0202 2.99967 14.3594 2.8592 14.6094 2.60915C14.8595 2.3591 15 2.01996 15 1.66634C15 1.31272 14.8595 0.973581 14.6094 0.723532C14.3594 0.473484 14.0202 0.333008 13.6666 0.333008H8.33329C7.97967 0.333008 7.64053 0.473484 7.39048 0.723532C7.14043 0.973581 6.99995 1.31272 6.99995 1.66634C6.99995 2.01996 7.14043 2.3591 7.39048 2.60915C7.64053 2.8592 7.97967 2.99967 8.33329 2.99967V2.99967ZM12.3333 10.9997C12.3333 10.6461 12.1928 10.3069 11.9428 10.0569C11.6927 9.80682 11.3536 9.66634 11 9.66634C10.6463 9.66634 10.3072 9.80682 10.0571 10.0569C9.8071 10.3069 9.66662 10.6461 9.66662 10.9997V13.5197C9.36471 13.7897 9.15192 14.145 9.05638 14.5387C8.96085 14.9323 8.98708 15.3456 9.13161 15.724C9.27614 16.1024 9.53216 16.428 9.86578 16.6577C10.1994 16.8874 10.5949 17.0104 11 17.0104C11.405 17.0104 11.8005 16.8874 12.1341 16.6577C12.4678 16.428 12.7238 16.1024 12.8683 15.724C13.0128 15.3456 13.0391 14.9323 12.9435 14.5387C12.848 14.145 12.6352 13.7897 12.3333 13.5197V10.9997Z" fill="#6DF1B2"/>
</svg>
