<svg width="18" height="20" viewBox="0 0 18 20" fill="none" xmlns="http://www.w3.org/2000/svg">
  <path
    d="M16.0797 10.4197L9.89967 16.6097C9.08949 17.3297 8.03482 17.713 6.95139 17.6811C5.86797 17.6492 4.83767 17.2046 4.07124 16.4382C3.30482 15.6717 2.86018 14.6414 2.82829 13.558C2.7964 12.4746 3.17966 11.4199 3.89967 10.6097L11.8997 2.60972C12.3773 2.15602 13.0109 1.90305 13.6697 1.90305C14.3284 1.90305 14.962 2.15602 15.4397 2.60972C15.905 3.08131 16.1659 3.71719 16.1659 4.37972C16.1659 5.04225 15.905 5.67813 15.4397 6.14972L8.53967 13.0397C8.47138 13.1133 8.38928 13.1726 8.29805 13.2144C8.20682 13.2563 8.10824 13.2797 8.00796 13.2834C7.90767 13.2871 7.80763 13.271 7.71356 13.2361C7.61948 13.2011 7.53321 13.148 7.45967 13.0797C7.38613 13.0114 7.32676 12.9293 7.28495 12.8381C7.24314 12.7469 7.21971 12.6483 7.216 12.548C7.21228 12.4477 7.22836 12.3477 7.2633 12.2536C7.29825 12.1595 7.35138 12.0733 7.41967 11.9997L12.5497 6.87972C12.738 6.69142 12.8438 6.43603 12.8438 6.16972C12.8438 5.90342 12.738 5.64803 12.5497 5.45972C12.3614 5.27142 12.106 5.16563 11.8397 5.16563C11.5734 5.16563 11.318 5.27142 11.1297 5.45972L5.99967 10.5997C5.74298 10.8544 5.53924 11.1574 5.4002 11.4912C5.26117 11.8251 5.18959 12.1831 5.18959 12.5447C5.18959 12.9063 5.26117 13.2644 5.4002 13.5982C5.53924 13.932 5.74298 14.235 5.99967 14.4897C6.52404 14.9892 7.22048 15.2678 7.94467 15.2678C8.66886 15.2678 9.3653 14.9892 9.88967 14.4897L16.7797 7.58972C17.5746 6.73667 18.0073 5.6084 17.9867 4.44259C17.9662 3.27678 17.4939 2.16447 16.6694 1.33999C15.8449 0.515515 14.7326 0.043243 13.5668 0.0226737C12.401 0.00210444 11.2727 0.434844 10.4197 1.22972L2.41967 9.22972C1.34087 10.4246 0.7647 11.9896 0.811205 13.5987C0.85771 15.2078 1.5233 16.737 2.66931 17.8675C3.81532 18.998 5.35335 19.6428 6.96296 19.6674C8.57256 19.692 10.1296 19.0947 11.3097 17.9997L17.4997 11.8197C17.5929 11.7265 17.6669 11.6158 17.7173 11.494C17.7678 11.3722 17.7938 11.2416 17.7938 11.1097C17.7938 10.9779 17.7678 10.8473 17.7173 10.7255C17.6669 10.6037 17.5929 10.493 17.4997 10.3997C17.4064 10.3065 17.2957 10.2325 17.1739 10.1821C17.0521 10.1316 16.9215 10.1056 16.7897 10.1056C16.6578 10.1056 16.5272 10.1316 16.4054 10.1821C16.2836 10.2325 16.1729 10.3065 16.0797 10.3997V10.4197Z"/>
</svg>
