<svg width="32" height="32" viewBox="0 0 32 32" fill="none" xmlns="http://www.w3.org/2000/svg">
<path d="M10.6667 8.00065C10.9304 8.00065 11.1882 7.92245 11.4074 7.77594C11.6267 7.62944 11.7976 7.4212 11.8985 7.17756C11.9994 6.93393 12.0258 6.66584 11.9744 6.4072C11.9229 6.14856 11.7959 5.91098 11.6095 5.72451C11.423 5.53804 11.1854 5.41105 10.9268 5.3596C10.6681 5.30816 10.4001 5.33456 10.1564 5.43548C9.91279 5.53639 9.70455 5.70729 9.55805 5.92656C9.41154 6.14582 9.33334 6.40361 9.33334 6.66732C9.33334 7.02094 9.47381 7.36008 9.72386 7.61013C9.97391 7.86017 10.313 8.00065 10.6667 8.00065ZM28 25.334H19.76C19.5609 24.7748 19.2399 24.2669 18.8201 23.8472C18.4004 23.4275 17.8925 23.1064 17.3333 22.9073V20.0007H22.6667C23.7275 20.0007 24.745 19.5792 25.4951 18.8291C26.2452 18.0789 26.6667 17.0615 26.6667 16.0007V13.334C26.6608 12.3472 26.2904 11.3975 25.6267 10.6673C26.2904 9.93713 26.6608 8.98739 26.6667 8.00065V5.33398C26.6667 4.27312 26.2452 3.2557 25.4951 2.50556C24.745 1.75541 23.7275 1.33398 22.6667 1.33398H9.33334C8.27247 1.33398 7.25506 1.75541 6.50491 2.50556C5.75477 3.2557 5.33334 4.27312 5.33334 5.33398V8.00065C5.33922 8.98739 5.70962 9.93713 6.37334 10.6673C5.70962 11.3975 5.33922 12.3472 5.33334 13.334V16.0007C5.33334 17.0615 5.75477 18.0789 6.50491 18.8291C7.25506 19.5792 8.27247 20.0007 9.33334 20.0007H14.6667V22.9073C14.1075 23.1064 13.5996 23.4275 13.1799 23.8472C12.7601 24.2669 12.4391 24.7748 12.24 25.334H4.00001C3.64638 25.334 3.30724 25.4745 3.0572 25.7245C2.80715 25.9746 2.66667 26.3137 2.66667 26.6673C2.66667 27.0209 2.80715 27.3601 3.0572 27.6101C3.30724 27.8602 3.64638 28.0006 4.00001 28.0006H12.24C12.5203 28.7729 13.0315 29.44 13.7042 29.9115C14.3769 30.383 15.1785 30.636 16 30.636C16.8215 30.636 17.6231 30.383 18.2958 29.9115C18.9685 29.44 19.4797 28.7729 19.76 28.0006H28C28.3536 28.0006 28.6928 27.8602 28.9428 27.6101C29.1929 27.3601 29.3333 27.0209 29.3333 26.6673C29.3333 26.3137 29.1929 25.9746 28.9428 25.7245C28.6928 25.4745 28.3536 25.334 28 25.334ZM8 5.33398C8 4.98036 8.14048 4.64122 8.39053 4.39118C8.64058 4.14113 8.97972 4.00065 9.33334 4.00065H22.6667C23.0203 4.00065 23.3594 4.14113 23.6095 4.39118C23.8595 4.64122 24 4.98036 24 5.33398V8.00065C24 8.35427 23.8595 8.69341 23.6095 8.94346C23.3594 9.19351 23.0203 9.33398 22.6667 9.33398H9.33334C8.97972 9.33398 8.64058 9.19351 8.39053 8.94346C8.14048 8.69341 8 8.35427 8 8.00065V5.33398ZM9.33334 17.334C8.97972 17.334 8.64058 17.1935 8.39053 16.9435C8.14048 16.6934 8 16.3543 8 16.0007V13.334C8 12.9804 8.14048 12.6412 8.39053 12.3912C8.64058 12.1411 8.97972 12.0007 9.33334 12.0007H22.6667C23.0203 12.0007 23.3594 12.1411 23.6095 12.3912C23.8595 12.6412 24 12.9804 24 13.334V16.0007C24 16.3543 23.8595 16.6934 23.6095 16.9435C23.3594 17.1935 23.0203 17.334 22.6667 17.334H9.33334ZM16 28.0006C15.7363 28.0006 15.4785 27.9225 15.2592 27.7759C15.04 27.6294 14.8691 27.4212 14.7682 27.1776C14.6672 26.9339 14.6408 26.6658 14.6923 26.4072C14.7437 26.1486 14.8707 25.911 15.0572 25.7245C15.2437 25.538 15.4812 25.411 15.7399 25.3596C15.9985 25.3082 16.2666 25.3346 16.5102 25.4355C16.7539 25.5364 16.9621 25.7073 17.1086 25.9266C17.2551 26.1458 17.3333 26.4036 17.3333 26.6673C17.3333 27.0209 17.1929 27.3601 16.9428 27.6101C16.6928 27.8602 16.3536 28.0006 16 28.0006ZM10.6667 13.334C10.403 13.334 10.1452 13.4122 9.92591 13.5587C9.70665 13.7052 9.53575 13.9134 9.43483 14.1571C9.33392 14.4007 9.30751 14.6688 9.35896 14.9274C9.4104 15.1861 9.53739 15.4237 9.72386 15.6101C9.91033 15.7966 10.1479 15.9236 10.4066 15.975C10.6652 16.0265 10.9333 16.0001 11.1769 15.8992C11.4206 15.7982 11.6288 15.6273 11.7753 15.4081C11.9218 15.1888 12 14.931 12 14.6673C12 14.3137 11.8595 13.9746 11.6095 13.7245C11.3594 13.4745 11.0203 13.334 10.6667 13.334Z" fill="#6DF1B2"/>
</svg>
