<svg width="32" height="32" viewBox="0 0 32 32" fill="none" xmlns="http://www.w3.org/2000/svg">
<path d="M28.08 16.3729C28.0705 14.371 27.2702 12.454 25.8533 11.0396L18.6667 3.74628C17.9592 3.03955 17 2.64258 16 2.64258C15 2.64258 14.0409 3.03955 13.3333 3.74628L6.14667 10.9729C4.72985 12.3873 3.92948 14.3043 3.92001 16.3063C3.90762 17.3144 4.09594 18.3149 4.474 19.2495C4.85205 20.1842 5.41229 21.0342 6.12209 21.7502C6.83188 22.4662 7.67704 23.0339 8.60835 23.42C9.53965 23.8062 10.5385 24.0032 11.5467 23.9996C11.2116 25.1499 10.6545 26.2235 9.90667 27.1596C9.74534 27.3582 9.64455 27.599 9.61632 27.8533C9.58809 28.1076 9.63362 28.3646 9.74748 28.5937C9.86134 28.8229 10.0387 29.0144 10.2584 29.1455C10.4782 29.2765 10.731 29.3416 10.9867 29.3329H21.0133C21.2657 29.3338 21.513 29.2631 21.7267 29.1289C21.9404 28.9948 22.1117 28.8028 22.2206 28.5752C22.3295 28.3476 22.3716 28.0937 22.342 27.8432C22.3124 27.5926 22.2123 27.3556 22.0533 27.1596C21.3044 26.2242 20.7471 25.1505 20.4133 23.9996C21.4186 24.0102 22.4159 23.8209 23.3474 23.4427C24.2789 23.0646 25.1259 22.505 25.8392 21.7966C26.5526 21.0883 27.118 20.2452 27.5027 19.3164C27.8874 18.3876 28.0836 17.3916 28.08 16.3863V16.3729ZM24 19.8796C23.3694 20.5006 22.5864 20.9446 21.7298 21.167C20.8731 21.3894 19.973 21.3822 19.12 21.1463C19.0446 21.1398 18.9688 21.1398 18.8933 21.1463H18.6267C18.5269 21.165 18.4288 21.1917 18.3333 21.2263H18.1333C18.0697 21.2678 18.0115 21.3171 17.96 21.3729C17.8757 21.4237 17.7993 21.4866 17.7333 21.5596C17.7119 21.6112 17.6851 21.6603 17.6533 21.7063C17.5948 21.8057 17.5414 21.9081 17.4933 22.0129C17.4868 22.0928 17.4868 22.1731 17.4933 22.2529C17.4933 22.3329 17.4933 22.4129 17.4933 22.4929C17.5979 23.9395 17.9686 25.3543 18.5867 26.6663H13.4133C14.045 25.4156 14.4426 24.06 14.5867 22.6663C14.5867 22.5863 14.5867 22.5063 14.5867 22.4129C14.5932 22.3331 14.5932 22.2528 14.5867 22.1729C14.5422 22.0596 14.4839 21.9521 14.4133 21.8529C14.3917 21.8057 14.3648 21.761 14.3333 21.7196C14.2753 21.6439 14.2028 21.5804 14.12 21.5329C14.0656 21.4802 14.0077 21.4312 13.9467 21.3863H13.76C13.6625 21.3413 13.5594 21.3099 13.4533 21.2929H13.2C13.1201 21.2864 13.0399 21.2864 12.96 21.2929C12.0824 21.5216 11.1595 21.5111 10.2873 21.2625C9.4151 21.014 8.62533 20.5365 8.00001 19.8796C7.07345 18.9472 6.55134 17.6874 6.54667 16.3729C6.54463 15.7213 6.67205 15.0758 6.92154 14.4738C7.17103 13.8718 7.53761 13.3254 8.00001 12.8663L15.2 5.63961C15.4016 5.44333 15.6719 5.33349 15.9533 5.33349C16.2347 5.33349 16.505 5.44333 16.7067 5.63961L24 12.8663C24.4624 13.3254 24.829 13.8718 25.0785 14.4738C25.328 15.0758 25.4554 15.7213 25.4533 16.3729C25.4444 17.6866 24.9229 18.9448 24 19.8796Z" fill="#6DF1B2"/>
</svg>
