<svg width="32" height="32" viewBox="0 0 32 32" fill="none" xmlns="http://www.w3.org/2000/svg">
<g clip-path="url(#clip0_37858_42964)">
<path d="M0 16.0004C0 17.9576 0.352063 19.8323 0.995188 21.5656L16 22.9569L31.0048 21.5656C31.6479 19.8323 32 17.9576 32 16.0004C32 14.0433 31.6479 12.1686 31.0048 10.4353L16 9.04395L0.995188 10.4353C0.352063 12.1686 0 14.0433 0 16.0004H0Z" fill="#FFDA44"/>
<path d="M31.0047 10.4348C28.7441 4.34206 22.8794 0 15.9999 0C9.12049 0 3.2558 4.34206 0.995117 10.4348H31.0047Z" fill="#D80027"/>
<path d="M0.995117 21.5654C3.2558 27.6582 9.12049 32.0002 15.9999 32.0002C22.8794 32.0002 28.7441 27.6582 31.0047 21.5654H0.995117Z" fill="#D80027"/>
</g>
<defs>
<clipPath id="clip0_37858_42964">
<rect width="32" height="32" fill="white"/>
</clipPath>
</defs>
</svg>
