<svg width="28" height="26" viewBox="0 0 28 26" fill="none" xmlns="http://www.w3.org/2000/svg">
<path d="M27.3332 9.89353C27.249 9.64964 27.0959 9.43543 26.8923 9.27686C26.6888 9.1183 26.4436 9.02219 26.1866 9.00019L18.5999 7.89353L15.1999 1.00019C15.0907 0.774766 14.9202 0.58465 14.708 0.451625C14.4958 0.3186 14.2504 0.248047 13.9999 0.248047C13.7494 0.248047 13.504 0.3186 13.2918 0.451625C13.0795 0.58465 12.9091 0.774766 12.7999 1.00019L9.39989 7.88019L1.81322 9.00019C1.56645 9.03527 1.33445 9.13881 1.14356 9.29907C0.952657 9.45933 0.810502 9.66989 0.733222 9.90686C0.662482 10.1384 0.656134 10.3849 0.714859 10.6198C0.773584 10.8547 0.895165 11.0692 1.06656 11.2402L6.57322 16.5735L5.23989 24.1469C5.19229 24.3968 5.21721 24.6552 5.31172 24.8915C5.40622 25.1277 5.56636 25.332 5.77322 25.4802C5.97485 25.6243 6.21265 25.7094 6.45995 25.7259C6.70725 25.7424 6.95425 25.6896 7.17322 25.5735L13.9999 22.0135L20.7999 25.5869C20.987 25.6924 21.1984 25.7476 21.4132 25.7469C21.6957 25.7479 21.9711 25.6592 22.1999 25.4935C22.4067 25.3453 22.5669 25.1411 22.6614 24.9048C22.7559 24.6685 22.7808 24.4102 22.7332 24.1602L21.3999 16.5869L26.9066 11.2535C27.0991 11.0904 27.2413 10.8761 27.3169 10.6353C27.3924 10.3946 27.3981 10.1374 27.3332 9.89353ZM19.1332 15.2269C18.9769 15.3781 18.8599 15.5653 18.7925 15.7722C18.7251 15.979 18.7093 16.1992 18.7466 16.4135L19.7066 22.0002L14.6932 19.3335C14.5003 19.2308 14.2851 19.1771 14.0666 19.1771C13.848 19.1771 13.6328 19.2308 13.4399 19.3335L8.42656 22.0002L9.38656 16.4135C9.4238 16.1992 9.40804 15.979 9.34064 15.7722C9.27324 15.5653 9.15626 15.3781 8.99989 15.2269L4.99989 11.2269L10.6132 10.4135C10.8292 10.3835 11.0346 10.3009 11.2112 10.1731C11.3879 10.0452 11.5305 9.87598 11.6266 9.68019L13.9999 4.60019L16.5066 9.69353C16.6026 9.88931 16.7452 10.0585 16.9219 10.1864C17.0986 10.3142 17.3039 10.3968 17.5199 10.4269L23.1332 11.2402L19.1332 15.2269Z" fill="#6DF1B2"/>
</svg>
