<svg width="42" height="42" viewBox="0 0 42 42" fill="none" xmlns="http://www.w3.org/2000/svg">
  <g id="u:arrow-left">
    <path id="Vector"
          d="M29.7501 19.2503H16.4676L22.2426 13.4928C22.5721 13.1633 22.7572 12.7164 22.7572 12.2503C22.7572 11.7843 22.5721 11.3374 22.2426 11.0078C21.913 10.6783 21.4661 10.4932 21.0001 10.4932C20.534 10.4932 20.0871 10.6783 19.7576 11.0078L11.0076 19.7578C10.8482 19.9243 10.7234 20.1205 10.6401 20.3353C10.465 20.7614 10.465 21.2393 10.6401 21.6653C10.7234 21.8801 10.8482 22.0764 11.0076 22.2428L19.7576 30.9928C19.9202 31.1568 20.1138 31.287 20.3271 31.3759C20.5403 31.4647 20.769 31.5105 21.0001 31.5105C21.2311 31.5105 21.4598 31.4647 21.6731 31.3759C21.8863 31.287 22.0799 31.1568 22.2426 30.9928C22.4066 30.8301 22.5368 30.6366 22.6256 30.4233C22.7145 30.2101 22.7602 29.9813 22.7602 29.7503C22.7602 29.5193 22.7145 29.2906 22.6256 29.0773C22.5368 28.8641 22.4066 28.6705 22.2426 28.5078L16.4676 22.7503H29.7501C30.2142 22.7503 30.6593 22.5659 30.9875 22.2378C31.3157 21.9096 31.5001 21.4645 31.5001 21.0003C31.5001 20.5362 31.3157 20.0911 30.9875 19.7629C30.6593 19.4347 30.2142 19.2503 29.7501 19.2503Z"/>
  </g>
</svg>
