<svg width="16" height="16" viewBox="0 0 16 16" fill="none" xmlns="http://www.w3.org/2000/svg">
  <g id="u:check">
    <path id="Vector"
          d="M12.473 4.80694C12.411 4.74445 12.3373 4.69486 12.256 4.66101C12.1748 4.62717 12.0876 4.60974 11.9996 4.60974C11.9116 4.60974 11.8245 4.62717 11.7433 4.66101C11.662 4.69486 11.5883 4.74445 11.5263 4.80694L6.55964 9.78027L4.47297 7.68694C4.40863 7.62478 4.33267 7.5759 4.24943 7.5431C4.16619 7.5103 4.07731 7.49421 3.98786 7.49576C3.8984 7.49731 3.81013 7.51646 3.72808 7.55212C3.64602 7.58778 3.5718 7.63926 3.50964 7.70361C3.44748 7.76795 3.39861 7.84391 3.3658 7.92715C3.333 8.01039 3.31691 8.09927 3.31846 8.18872C3.32001 8.27818 3.33916 8.36645 3.37482 8.4485C3.41049 8.53056 3.46196 8.60478 3.52631 8.66694L6.08631 11.2269C6.14828 11.2894 6.22202 11.339 6.30326 11.3729C6.3845 11.4067 6.47163 11.4241 6.55964 11.4241C6.64765 11.4241 6.73479 11.4067 6.81603 11.3729C6.89727 11.339 6.971 11.2894 7.03297 11.2269L12.473 5.78694C12.5406 5.72451 12.5946 5.64874 12.6316 5.56441C12.6685 5.48008 12.6876 5.38901 12.6876 5.29694C12.6876 5.20487 12.6685 5.1138 12.6316 5.02947C12.5946 4.94514 12.5406 4.86937 12.473 4.80694Z"/>
  </g>
</svg>
