<svg width="17" height="16" viewBox="0 0 17 16" fill="none" xmlns="http://www.w3.org/2000/svg">
  <g id="u:clock">
    <path id="Vector"
          d="M8.45476 1.33337C7.13621 1.33337 5.84728 1.72437 4.75095 2.45691C3.65463 3.18945 2.80014 4.23064 2.29556 5.44882C1.79097 6.66699 1.65895 8.00744 1.91619 9.30064C2.17342 10.5938 2.80836 11.7817 3.74071 12.7141C4.67306 13.6464 5.86095 14.2814 7.15415 14.5386C8.44736 14.7958 9.7878 14.6638 11.006 14.1592C12.2242 13.6547 13.2653 12.8002 13.9979 11.7038C14.7304 10.6075 15.1214 9.31858 15.1214 8.00004C15.1214 7.12456 14.949 6.25765 14.614 5.44882C14.2789 4.63998 13.7879 3.90505 13.1688 3.286C12.5497 2.66694 11.8148 2.17588 11.006 1.84084C10.1971 1.50581 9.33023 1.33337 8.45476 1.33337ZM8.45476 13.3334C7.39992 13.3334 6.36878 13.0206 5.49171 12.4345C4.61465 11.8485 3.93107 11.0156 3.5274 10.041C3.12373 9.06648 3.01811 7.99412 3.2239 6.95956C3.42969 5.92499 3.93764 4.97468 4.68352 4.2288C5.4294 3.48292 6.37971 2.97497 7.41427 2.76919C8.44884 2.5634 9.52119 2.66902 10.4957 3.07268C11.4703 3.47635 12.3032 4.15994 12.8893 5.037C13.4753 5.91406 13.7881 6.94521 13.7881 8.00004C13.7881 9.41453 13.2262 10.7711 12.226 11.7713C11.2258 12.7715 9.86924 13.3334 8.45476 13.3334ZM10.5214 8.42004L9.12142 7.61337V4.66671C9.12142 4.4899 9.05118 4.32033 8.92616 4.1953C8.80114 4.07028 8.63157 4.00004 8.45476 4.00004C8.27794 4.00004 8.10838 4.07028 7.98335 4.1953C7.85833 4.32033 7.78809 4.4899 7.78809 4.66671V8.00004C7.78809 8.00004 7.78809 8.05337 7.78809 8.08004C7.79204 8.12597 7.80329 8.17099 7.82142 8.21337C7.83515 8.25293 7.85303 8.29092 7.87476 8.32671C7.893 8.3646 7.91535 8.40037 7.94142 8.43337L8.04809 8.52004L8.10809 8.58004L9.84142 9.58004C9.94302 9.63763 10.058 9.66751 10.1748 9.66671C10.3224 9.66774 10.4661 9.61975 10.5835 9.53027C10.7009 9.44078 10.7853 9.31487 10.8235 9.17226C10.8616 9.02965 10.8513 8.87843 10.7942 8.74229C10.7372 8.60616 10.6365 8.49282 10.5081 8.42004H10.5214Z"/>
  </g>
</svg>
