<svg width="24" height="24" viewBox="0 0 24 24" fill="none" xmlns="http://www.w3.org/2000/svg">
  <g id="u:exchange">
    <path id="Vector"
          d="M10.0002 6.00004C9.73497 6.00004 9.48062 6.1054 9.29308 6.29294C9.10554 6.48047 9.00019 6.73483 9.00019 7.00004L9.00019 18.59L6.71019 16.29C6.52188 16.1017 6.26649 15.996 6.00019 15.996C5.73388 15.996 5.47849 16.1017 5.29019 16.29C5.10188 16.4783 4.99609 16.7337 4.99609 17C4.99609 17.2663 5.10188 17.5217 5.29019 17.71L9.29019 21.71C9.43081 21.8488 9.60938 21.9428 9.80337 21.9802C9.99736 22.0175 10.1981 21.9966 10.3802 21.92C10.5628 21.845 10.7191 21.7176 10.8295 21.5539C10.9398 21.3902 10.9992 21.1975 11.0002 21L11.0002 7.00004C11.0002 6.73483 10.8948 6.48047 10.7073 6.29294C10.5198 6.1054 10.2654 6.00004 10.0002 6.00004ZM13.6202 2.08004C13.4376 2.15506 13.2812 2.28246 13.1709 2.44618C13.0606 2.6099 13.0012 2.80262 13.0002 3.00004L13.0002 17C13.0002 17.2653 13.1055 17.5196 13.2931 17.7072C13.4806 17.8947 13.735 18 14.0002 18C14.2654 18 14.5198 17.8947 14.7073 17.7072C14.8948 17.5196 15.0002 17.2653 15.0002 17L15.0002 5.41004L17.2902 7.71004C17.3831 7.80377 17.4937 7.87817 17.6156 7.92894C17.7375 7.97971 17.8682 8.00584 18.0002 8.00584C18.1322 8.00584 18.2629 7.97971 18.3848 7.92894C18.5066 7.87817 18.6172 7.80377 18.7102 7.71004C18.8039 7.61708 18.8783 7.50648 18.9291 7.38462C18.9798 7.26276 19.006 7.13206 19.006 7.00004C19.006 6.86803 18.9798 6.73733 18.9291 6.61547C18.8783 6.49361 18.8039 6.38301 18.7102 6.29004L14.7102 2.29004C14.5696 2.15129 14.391 2.05729 14.197 2.01992C14.003 1.98254 13.8023 2.00346 13.6202 2.08004Z"/>
  </g>
</svg>
