<svg width="17" height="16" viewBox="0 0 17 16" fill="none" xmlns="http://www.w3.org/2000/svg">
  <g id="u:multiply">
    <path id="Vector"
          d="M9.39439 8L13.5944 3.80667C13.7199 3.68113 13.7904 3.51087 13.7904 3.33333C13.7904 3.1558 13.7199 2.98554 13.5944 2.86C13.4688 2.73447 13.2986 2.66394 13.1211 2.66394C12.9435 2.66394 12.7733 2.73447 12.6477 2.86L8.45439 7.06L4.26105 2.86C4.13552 2.73447 3.96525 2.66394 3.78772 2.66394C3.61019 2.66394 3.43992 2.73447 3.31439 2.86C3.18885 2.98554 3.11833 3.1558 3.11833 3.33333C3.11833 3.51087 3.18885 3.68113 3.31439 3.80667L7.51439 8L3.31439 12.1933C3.2519 12.2553 3.2023 12.329 3.16846 12.4103C3.13461 12.4915 3.11719 12.5787 3.11719 12.6667C3.11719 12.7547 3.13461 12.8418 3.16846 12.9231C3.2023 13.0043 3.2519 13.078 3.31439 13.14C3.37636 13.2025 3.4501 13.2521 3.53134 13.2859C3.61257 13.3198 3.69971 13.3372 3.78772 13.3372C3.87573 13.3372 3.96286 13.3198 4.0441 13.2859C4.12534 13.2521 4.19908 13.2025 4.26105 13.14L8.45439 8.94L12.6477 13.14C12.7097 13.2025 12.7834 13.2521 12.8647 13.2859C12.9459 13.3198 13.033 13.3372 13.1211 13.3372C13.2091 13.3372 13.2962 13.3198 13.3774 13.2859C13.4587 13.2521 13.5324 13.2025 13.5944 13.14C13.6569 13.078 13.7065 13.0043 13.7403 12.9231C13.7742 12.8418 13.7916 12.7547 13.7916 12.6667C13.7916 12.5787 13.7742 12.4915 13.7403 12.4103C13.7065 12.329 13.6569 12.2553 13.5944 12.1933L9.39439 8Z"/>
  </g>
</svg>
