<svg width="25" height="25" viewBox="0 0 25 25" fill="none" xmlns="http://www.w3.org/2000/svg">
  <g id="u:upload-alt">
    <path id="Vector"
          d="M10.21 6.78538L11.5 5.48538V17.0754C11.5 17.3406 11.6054 17.5949 11.7929 17.7825C11.9804 17.97 12.2348 18.0754 12.5 18.0754C12.7652 18.0754 13.0196 17.97 13.2071 17.7825C13.3946 17.5949 13.5 17.3406 13.5 17.0754V5.48538L14.79 6.78538C14.883 6.87911 14.9936 6.9535 15.1154 7.00427C15.2373 7.05504 15.368 7.08118 15.5 7.08118C15.632 7.08118 15.7627 7.05504 15.8846 7.00427C16.0064 6.9535 16.117 6.87911 16.21 6.78538C16.3037 6.69242 16.3781 6.58181 16.4289 6.45996C16.4797 6.3381 16.5058 6.20739 16.5058 6.07538C16.5058 5.94337 16.4797 5.81266 16.4289 5.6908C16.3781 5.56894 16.3037 5.45834 16.21 5.36538L13.21 2.36538C13.117 2.27165 13.0064 2.19726 12.8846 2.14649C12.7627 2.09572 12.632 2.06958 12.5 2.06958C12.368 2.06958 12.2373 2.09572 12.1154 2.14649C11.9936 2.19726 11.883 2.27165 11.79 2.36538L8.79 5.36538C8.6017 5.55368 8.49591 5.80908 8.49591 6.07538C8.49591 6.34168 8.6017 6.59707 8.79 6.78538C8.9783 6.97368 9.2337 7.07947 9.5 7.07947C9.7663 7.07947 10.0217 6.97368 10.21 6.78538ZM18.5 9.07538H16.5C16.2348 9.07538 15.9804 9.18074 15.7929 9.36827C15.6054 9.55581 15.5 9.81016 15.5 10.0754C15.5 10.3406 15.6054 10.5949 15.7929 10.7825C15.9804 10.97 16.2348 11.0754 16.5 11.0754H18.5C18.7652 11.0754 19.0196 11.1807 19.2071 11.3683C19.3946 11.5558 19.5 11.8102 19.5 12.0754V19.0754C19.5 19.3406 19.3946 19.5949 19.2071 19.7825C19.0196 19.97 18.7652 20.0754 18.5 20.0754H6.5C6.23478 20.0754 5.98043 19.97 5.79289 19.7825C5.60536 19.5949 5.5 19.3406 5.5 19.0754V12.0754C5.5 11.8102 5.60536 11.5558 5.79289 11.3683C5.98043 11.1807 6.23478 11.0754 6.5 11.0754H8.5C8.76522 11.0754 9.01957 10.97 9.20711 10.7825C9.39464 10.5949 9.5 10.3406 9.5 10.0754C9.5 9.81016 9.39464 9.55581 9.20711 9.36827C9.01957 9.18074 8.76522 9.07538 8.5 9.07538H6.5C5.70435 9.07538 4.94129 9.39145 4.37868 9.95406C3.81607 10.5167 3.5 11.2797 3.5 12.0754V19.0754C3.5 19.871 3.81607 20.6341 4.37868 21.1967C4.94129 21.7593 5.70435 22.0754 6.5 22.0754H18.5C19.2956 22.0754 20.0587 21.7593 20.6213 21.1967C21.1839 20.6341 21.5 19.871 21.5 19.0754V12.0754C21.5 11.2797 21.1839 10.5167 20.6213 9.95406C20.0587 9.39145 19.2956 9.07538 18.5 9.07538Z"/>
  </g>
</svg>
