<svg width="32" height="32" viewBox="0 0 32 32" fill="none" xmlns="http://www.w3.org/2000/svg">
<g clip-path="url(#clip0_37858_43021)">
<path d="M16 32C24.8366 32 32 24.8366 32 16C32 7.16344 24.8366 0 16 0C7.16344 0 0 7.16344 0 16C0 24.8366 7.16344 32 16 32Z" fill="#F0F0F0"/>
<path d="M3.30758 6.25879C2.05077 7.89398 1.10308 9.77866 0.55127 11.8261H8.87489L3.30758 6.25879Z" fill="#0052B4"/>
<path d="M31.449 11.826C30.8972 9.77866 29.9494 7.89398 28.6927 6.25879L23.1255 11.826H31.449Z" fill="#0052B4"/>
<path d="M0.55127 20.1738C1.10314 22.2212 2.05083 24.1059 3.30758 25.741L8.87471 20.1738H0.55127Z" fill="#0052B4"/>
<path d="M25.7411 3.30716C24.1059 2.05034 22.2213 1.10266 20.1738 0.550781V8.87434L25.7411 3.30716Z" fill="#0052B4"/>
<path d="M6.25879 28.6921C7.89398 29.9489 9.77866 30.8966 11.826 31.4485V23.125L6.25879 28.6921Z" fill="#0052B4"/>
<path d="M11.826 0.550781C9.7786 1.10266 7.89391 2.05034 6.25879 3.30709L11.826 8.87428V0.550781Z" fill="#0052B4"/>
<path d="M20.1738 31.4485C22.2212 30.8966 24.1059 29.9489 25.741 28.6922L20.1738 23.125V31.4485Z" fill="#0052B4"/>
<path d="M23.1255 20.1738L28.6927 25.7411C29.9494 24.106 30.8972 22.2212 31.449 20.1738H23.1255Z" fill="#0052B4"/>
<path d="M31.8646 13.9131H18.0871H18.087V0.135438C17.4038 0.0465 16.7073 0 16 0C15.2926 0 14.5962 0.0465 13.9131 0.135438V13.9129V13.913H0.135438C0.0465 14.5962 0 15.2927 0 16C0 16.7074 0.0465 17.4038 0.135438 18.0869H13.9129H13.913V31.8646C14.5962 31.9535 15.2926 32 16 32C16.7073 32 17.4038 31.9536 18.0869 31.8646V18.0871V18.087H31.8646C31.9535 17.4038 32 16.7074 32 16C32 15.2927 31.9535 14.5962 31.8646 13.9131Z" fill="#D80027"/>
<path d="M20.1738 20.1739L27.3136 27.3136C27.642 26.9854 27.9552 26.6422 28.2541 26.2865L22.1415 20.1738H20.1738V20.1739Z" fill="#D80027"/>
<path d="M11.8258 20.1738H11.8257L4.68604 27.3135C5.01429 27.6419 5.35747 27.9551 5.71322 28.254L11.8258 22.1413V20.1738Z" fill="#D80027"/>
<path d="M11.8259 11.8265V11.8263L4.68611 4.68652C4.35773 5.01477 4.04448 5.35796 3.74561 5.71371L9.85829 11.8264H11.8259V11.8265Z" fill="#D80027"/>
<path d="M20.1738 11.8264L27.3136 4.68653C26.9854 4.35816 26.6422 4.04491 26.2865 3.74609L20.1738 9.85878V11.8264Z" fill="#D80027"/>
</g>
<defs>
<clipPath id="clip0_37858_43021">
<rect width="32" height="32" fill="white"/>
</clipPath>
</defs>
</svg>
