<svg width="16" height="16" viewBox="0 0 16 16" fill="none" xmlns="http://www.w3.org/2000/svg">
<path d="M14.3243 13.3124C13.3362 11.6049 11.785 10.4068 9.98247 9.8987C10.8588 9.45323 11.5596 8.7256 11.9718 7.83313C12.384 6.94066 12.4836 5.93537 12.2546 4.97936C12.0255 4.02335 11.4812 3.17233 10.7093 2.56354C9.93745 1.95475 8.98304 1.62366 7.99997 1.62366C7.01691 1.62366 6.06249 1.95475 5.29062 2.56354C4.51875 3.17233 3.97441 4.02335 3.74537 4.97936C3.51633 5.93537 3.61595 6.94066 4.02815 7.83313C4.44036 8.7256 5.14113 9.45323 6.01747 9.8987C4.21497 10.4062 2.66372 11.6043 1.6756 13.3124C1.64846 13.3551 1.63025 13.4029 1.62204 13.4528C1.61383 13.5027 1.6158 13.5537 1.62783 13.6028C1.63987 13.652 1.66171 13.6981 1.69205 13.7386C1.7224 13.7791 1.76061 13.813 1.8044 13.8383C1.84819 13.8636 1.89664 13.8798 1.94685 13.8859C1.99705 13.892 2.04798 13.8879 2.09655 13.8738C2.14512 13.8597 2.19034 13.8359 2.22949 13.8039C2.26864 13.7719 2.3009 13.7323 2.32435 13.6874C3.52497 11.6131 5.64622 10.3749 7.99997 10.3749C10.3537 10.3749 12.475 11.6131 13.6756 13.6874C13.699 13.7323 13.7313 13.7719 13.7705 13.8039C13.8096 13.8359 13.8548 13.8597 13.9034 13.8738C13.952 13.8879 14.0029 13.892 14.0531 13.8859C14.1033 13.8798 14.1518 13.8636 14.1955 13.8383C14.2393 13.813 14.2775 13.7791 14.3079 13.7386C14.3382 13.6981 14.3601 13.652 14.3721 13.6028C14.3841 13.5537 14.3861 13.5027 14.3779 13.4528C14.3697 13.4029 14.3515 13.3551 14.3243 13.3124ZM4.37497 5.99995C4.37497 5.28299 4.58757 4.58213 4.98589 3.98601C5.38422 3.38988 5.95036 2.92525 6.61274 2.65088C7.27513 2.37652 8.00399 2.30473 8.70717 2.4446C9.41036 2.58447 10.0563 2.92972 10.5632 3.43669C11.0702 3.94365 11.4154 4.58956 11.5553 5.29275C11.6952 5.99593 11.6234 6.72479 11.349 7.38718C11.0747 8.04956 10.61 8.61571 10.0139 9.01403C9.41779 9.41235 8.71693 9.62495 7.99997 9.62495C7.03892 9.62379 6.11756 9.2415 5.43799 8.56193C4.75842 7.88236 4.37613 6.961 4.37497 5.99995Z" fill="#6DF1B2"/>
</svg>
