<svg width="24" height="24" viewBox="0 0 24 24" fill="none" xmlns="http://www.w3.org/2000/svg">
<path d="M23.8693 11.1648C23.6844 10.7051 19.3298 0 15.976 0V0.441494C18.4327 0.441494 22.003 7.8058 23.3373 11.0237H21.8272C21.2727 9.68557 17.1705 0 13.9835 0V0.441494C16.4403 0.441494 20.0105 7.8058 21.3448 11.0237H19.8347C19.2892 9.69012 15.1871 0 12 0V0.441494C14.4568 0.441494 18.027 7.8058 19.3614 11.0237H17.8467C17.2968 9.68557 13.1991 0 10.0075 0V0.441494C12.4643 0.441494 16.0346 7.8058 17.3689 11.0237H15.8587C15.3133 9.68557 11.2111 0 8.02405 0V0.441494C10.5575 0.441494 14.29 8.30191 15.5116 11.3287L15.5702 11.4652H24L23.8693 11.1648Z" fill="url(#paint0_linear_36422_14590)"/>
<path d="M8.02398 0C4.67462 0 0.310992 10.7051 0.130676 11.1648L0.00445557 11.4698H8.4342L8.4928 11.3332C9.71894 8.29736 13.4425 0.436943 15.9804 0.436943V0H8.02398ZM12.7212 0.441494C9.80459 2.35767 6.63104 9.85852 6.15321 11.0237H4.63856C5.97289 7.8058 9.54764 0.441494 11.9999 0.441494H12.7212ZM10.7332 0.441494C7.81662 2.35767 4.64307 9.85852 4.16072 11.0237H2.65058C3.98492 7.8058 7.55967 0.441494 10.012 0.441494H10.7332ZM8.02398 0.441494H8.74524C5.82864 2.35767 2.65509 9.85852 2.17275 11.0237H0.662606C1.99694 7.8058 5.56268 0.441494 8.02398 0.441494ZM8.13668 11.0237H6.62654C7.96087 7.8058 11.5311 0.441494 13.9924 0.441494H14.7137C11.7926 2.35767 8.61902 9.85852 8.13668 11.0237Z" fill="url(#paint1_linear_36422_14590)"/>
<path d="M15.9759 23.9955V23.554C13.438 23.554 9.70998 15.6936 8.48834 12.6668L8.42974 12.5303H0L0.126221 12.8352C0.311044 13.2904 4.67017 24 8.01952 24V23.5585C5.56273 23.5585 1.99248 16.1942 0.658151 12.9763H2.16829C2.71825 14.3145 6.82043 24 10.0075 24V23.5585C7.5507 23.5585 3.98046 16.1942 2.64613 12.9763H4.15627C4.70623 14.3145 8.8084 24 11.9955 24V23.5585C9.53868 23.5585 5.96844 16.1942 4.6341 12.9763H6.14424C6.6897 14.3099 10.7919 23.9955 13.9789 23.9955V23.554C11.5222 23.554 7.95191 16.1897 6.61757 12.9718H8.12771C8.6912 14.3099 12.7934 23.9955 15.9759 23.9955Z" fill="url(#paint2_linear_36422_14590)"/>
<path d="M15.5656 12.526L15.507 12.6626C14.2854 15.6893 10.5573 23.5497 8.01941 23.5497V23.9912H15.9758C19.3252 23.9912 23.6888 13.2861 23.8691 12.8264L23.9953 12.5215L15.5656 12.526ZM9.29063 23.5497C12.2072 21.6336 15.3808 14.1373 15.8586 12.9675H17.3733C16.0389 16.1854 12.4642 23.5497 10.0074 23.5497H9.29063ZM11.2786 23.5497C14.1952 21.6336 17.3688 14.1327 17.8466 12.9675H19.3567C18.0224 16.1854 14.4522 23.5497 11.9954 23.5497H11.2786ZM13.2666 23.5497C16.1832 21.6336 19.3567 14.1327 19.8346 12.9675H21.3447C20.0149 16.1854 16.4401 23.5497 13.9878 23.5497H13.2666ZM15.9803 23.5497H15.2591C18.1757 21.6336 21.3492 14.1327 21.8271 12.9675H23.3372C22.0029 16.1854 18.4326 23.5497 15.9803 23.5497Z" fill="url(#paint3_linear_36422_14590)"/>
<defs>
<linearGradient id="paint0_linear_36422_14590" x1="13.7315" y1="1.74564" x2="21.8347" y2="13.0417" gradientUnits="userSpaceOnUse">
<stop stop-color="#65F1C1"/>
<stop offset="1" stop-color="#00CEF8"/>
</linearGradient>
<linearGradient id="paint1_linear_36422_14590" x1="15.8332" y1="-0.201076" x2="-0.0303432" y2="11.4199" gradientUnits="userSpaceOnUse">
<stop stop-color="#65F1C1"/>
<stop offset="1" stop-color="#F4F286"/>
</linearGradient>
<linearGradient id="paint2_linear_36422_14590" x1="11.0309" y1="23.5399" x2="2.20827" y2="10.7277" gradientUnits="userSpaceOnUse">
<stop stop-color="#65F1C1"/>
<stop offset="1" stop-color="#F1F187"/>
</linearGradient>
<linearGradient id="paint3_linear_36422_14590" x1="8.94964" y1="25.0116" x2="23.3824" y2="11.8517" gradientUnits="userSpaceOnUse">
<stop stop-color="#65F1C1"/>
<stop offset="1" stop-color="#00CEF8"/>
</linearGradient>
</defs>
</svg>
