<svg width="16" height="20" viewBox="0 0 16 20" fill="none" xmlns="http://www.w3.org/2000/svg">
  <path
    d="M14.0002 11.1801V8.00012C13.9988 6.58325 13.496 5.21259 12.5809 4.1309C11.6657 3.0492 10.3973 2.32627 9.00025 2.09012V1.00012C9.00025 0.734906 8.89489 0.480552 8.70735 0.293015C8.51982 0.105479 8.26546 0.00012207 8.00025 0.00012207C7.73503 0.00012207 7.48067 0.105479 7.29314 0.293015C7.1056 0.480552 7.00025 0.734906 7.00025 1.00012V2.09012C5.60318 2.32627 4.33477 3.0492 3.41963 4.1309C2.50449 5.21259 2.00168 6.58325 2.00024 8.00012V11.1801C1.41669 11.3864 0.911243 11.7682 0.553183 12.2731C0.195123 12.7779 0.00198365 13.3812 0.000244141 14.0001V16.0001C0.000244141 16.2653 0.105601 16.5197 0.293138 16.7072C0.480674 16.8948 0.735028 17.0001 1.00024 17.0001H4.14024C4.37053 17.8475 4.87325 18.5955 5.57084 19.1289C6.26844 19.6622 7.12214 19.9511 8.00025 19.9511C8.87835 19.9511 9.73205 19.6622 10.4296 19.1289C11.1272 18.5955 11.63 17.8475 11.8602 17.0001H15.0002C15.2655 17.0001 15.5198 16.8948 15.7074 16.7072C15.8949 16.5197 16.0002 16.2653 16.0002 16.0001V14.0001C15.9985 13.3812 15.8054 12.7779 15.4473 12.2731C15.0892 11.7682 14.5838 11.3864 14.0002 11.1801ZM4.00024 8.00012C4.00024 6.93926 4.42167 5.92184 5.17182 5.17169C5.92196 4.42155 6.93938 4.00012 8.00025 4.00012C9.06111 4.00012 10.0785 4.42155 10.8287 5.17169C11.5788 5.92184 12.0002 6.93926 12.0002 8.00012V11.0001H4.00024V8.00012ZM8.00025 18.0001C7.65122 17.998 7.30882 17.9046 7.00708 17.7292C6.70533 17.5537 6.45476 17.3024 6.28024 17.0001H9.72025C9.54574 17.3024 9.29516 17.5537 8.99341 17.7292C8.69167 17.9046 8.34927 17.998 8.00025 18.0001ZM14.0002 15.0001H2.00024V14.0001C2.00024 13.7349 2.1056 13.4806 2.29314 13.293C2.48067 13.1055 2.73503 13.0001 3.00024 13.0001H13.0002C13.2655 13.0001 13.5198 13.1055 13.7074 13.293C13.8949 13.4806 14.0002 13.7349 14.0002 14.0001V15.0001Z"/>
</svg>
