<svg width="136" height="29" viewBox="0 0 136 29" fill="none" xmlns="http://www.w3.org/2000/svg">
<path d="M13.8747 28.7974C11.1445 28.7974 8.80058 28.2178 6.84304 27.0588C4.8855 25.8739 3.37871 24.2384 2.32267 22.152C1.26662 20.04 0.738604 17.6059 0.738604 14.8499C0.738604 12.0939 1.26662 9.65984 2.32267 7.54776C3.37871 5.43568 4.8855 3.78723 6.84304 2.6024C8.80058 1.41758 11.1445 0.825162 13.8747 0.825162C17.1201 0.825162 19.7731 1.63651 21.8337 3.25921C23.92 4.85615 25.2207 7.10989 25.7359 10.0204H20.2882C19.9534 8.55229 19.2322 7.4061 18.1246 6.58187C17.0428 5.73189 15.6004 5.3069 13.7975 5.3069C11.299 5.3069 9.34147 6.15688 7.92483 7.85685C6.50819 9.55682 5.79987 11.8878 5.79987 14.8499C5.79987 17.812 6.50819 20.143 7.92483 21.843C9.34147 23.5172 11.299 24.3543 13.7975 24.3543C15.6004 24.3543 17.0428 23.9679 18.1246 23.1952C19.2322 22.3967 19.9534 21.3021 20.2882 19.9112H25.7359C25.2207 22.6929 23.92 24.8694 21.8337 26.4406C19.7731 28.0118 17.1201 28.7974 13.8747 28.7974ZM42.786 28.7974C40.0815 28.7974 37.7118 28.205 35.677 27.0201C33.6679 25.8353 32.0839 24.1997 30.9248 22.1134C29.7915 20.0013 29.2248 17.5673 29.2248 14.8113C29.2248 12.0553 29.7915 9.63409 30.9248 7.54776C32.0839 5.43568 33.6679 3.78723 35.677 2.6024C37.7118 1.41758 40.0815 0.825162 42.786 0.825162C45.4647 0.825162 47.8215 1.41758 49.8563 2.6024C51.8911 3.78723 53.4752 5.43568 54.6085 7.54776C55.7418 9.63409 56.3084 12.0553 56.3084 14.8113C56.3084 17.5673 55.7418 20.0013 54.6085 22.1134C53.4752 24.1997 51.8911 25.8353 49.8563 27.0201C47.8215 28.205 45.4647 28.7974 42.786 28.7974ZM42.786 24.3543C45.3617 24.3543 47.4094 23.5043 48.929 21.8043C50.4744 20.1043 51.2472 17.7733 51.2472 14.8113C51.2472 11.8492 50.4744 9.51818 48.929 7.81821C47.4094 6.11825 45.3617 5.26826 42.786 5.26826C40.2102 5.26826 38.1497 6.11825 36.6043 7.81821C35.0588 9.51818 34.2861 11.8492 34.2861 14.8113C34.2861 17.7733 35.0588 20.1043 36.6043 21.8043C38.1497 23.5043 40.2102 24.3543 42.786 24.3543ZM60.6749 28.3337V1.28879H66.5475L75.1632 18.443L83.6631 1.28879H89.5357V28.3337H84.5903V9.67272L77.0564 24.4702H73.1542L65.6202 9.67272V28.3337H60.6749ZM94.7829 28.3337V1.28879H104.79C106.953 1.28879 108.743 1.64939 110.16 2.37059C111.577 3.09178 112.633 4.08343 113.328 5.34553C114.023 6.60763 114.371 8.02427 114.371 9.59545C114.371 11.0894 114.036 12.4674 113.367 13.7295C112.697 14.9658 111.654 15.9703 110.237 16.743C108.821 17.49 107.005 17.8635 104.79 17.8635H99.7283V28.3337H94.7829ZM99.7283 13.8454H104.48C106.206 13.8454 107.443 13.4719 108.189 12.7249C108.962 11.9522 109.349 10.9091 109.349 9.59545C109.349 8.25608 108.962 7.21292 108.189 6.46596C107.443 5.69325 106.206 5.3069 104.48 5.3069H99.7283V13.8454ZM118.251 28.3337V1.28879H123.196V24.4702H135.173V28.3337H118.251Z" fill="#0F1B1A"/>
</svg>
