<svg width="38" height="34" viewBox="0 0 38 34" fill="none" xmlns="http://www.w3.org/2000/svg">
<path d="M3.41497 6.19552C2.51347 6.19552 1.76652 5.92507 1.1741 5.38417C0.607446 4.84327 0.324118 4.16071 0.324118 3.33648C0.324118 2.51225 0.607446 1.84257 1.1741 1.32742C1.76652 0.786525 2.51347 0.516076 3.41497 0.516076C4.31647 0.516076 5.05055 0.786525 5.6172 1.32742C6.20961 1.84257 6.50582 2.51225 6.50582 3.33648C6.50582 4.16071 6.20961 4.84327 5.6172 5.38417C5.05055 5.92507 4.31647 6.19552 3.41497 6.19552ZM0.942288 28.3337V9.17046H5.88765V28.3337H0.942288ZM23.8378 28.7974C21.1333 28.7974 18.7637 28.205 16.7289 27.0201C14.7198 25.8353 13.1358 24.1997 11.9767 22.1134C10.8434 20.0013 10.2767 17.5673 10.2767 14.8113C10.2767 12.0553 10.8434 9.63409 11.9767 7.54776C13.1358 5.43568 14.7198 3.78723 16.7289 2.6024C18.7637 1.41758 21.1333 0.825162 23.8378 0.825162C26.5166 0.825162 28.8733 1.41758 30.9082 2.6024C32.943 3.78723 34.527 5.43568 35.6603 7.54776C36.7937 9.63409 37.3603 12.0553 37.3603 14.8113C37.3603 17.387 36.858 19.6922 35.8535 21.727C34.849 23.7361 33.4581 25.333 31.6809 26.5179L37.9398 33.2405H31.7968L27.5469 28.3724C26.362 28.6557 25.1257 28.7974 23.8378 28.7974ZM23.8378 24.3543C26.4135 24.3543 28.4612 23.5043 29.9809 21.8043C31.5263 20.1043 32.299 17.7733 32.299 14.8113C32.299 11.8492 31.5263 9.51818 29.9809 7.81821C28.4612 6.11825 26.4135 5.26826 23.8378 5.26826C21.2621 5.26826 19.2016 6.11825 17.6561 7.81821C16.1107 9.51818 15.338 11.8492 15.338 14.8113C15.338 17.7733 16.1107 20.1043 17.6561 21.8043C19.2016 23.5043 21.2621 24.3543 23.8378 24.3543Z" fill="#4CA97D"/>
</svg>
