<?xml version="1.0" standalone="no"?>
<!DOCTYPE svg PUBLIC "-//W3C//DTD SVG 20010904//EN"
 "http://www.w3.org/TR/2001/REC-SVG-20010904/DTD/svg10.dtd">
<svg version="1.0" xmlns="http://www.w3.org/2000/svg"
 width="722.000000pt" height="722.000000pt" viewBox="0 0 722.000000 722.000000"
 preserveAspectRatio="xMidYMid meet">
<metadata>
Created by potrace 1.14, written by Peter Selinger 2001-2017
</metadata>
<g transform="translate(0.000000,722.000000) scale(0.100000,-0.100000)"
fill="#000000" stroke="none">
<path d="M2265 7150 c-156 -42 -333 -159 -515 -340 -137 -136 -175 -181 -329
-385 -159 -210 -355 -506 -471 -710 -228 -399 -376 -684 -580 -1110 -127 -266
-371 -824 -365 -835 2 -3 569 -5 1261 -5 l1258 0 93 215 c51 118 111 256 134
305 23 50 62 135 87 190 86 186 367 739 471 925 101 181 265 457 281 473 8 9
148 -218 267 -433 11 -19 36 -64 56 -100 84 -153 157 -293 302 -588 85 -172
155 -314 155 -316 0 -2 20 -46 44 -98 44 -95 147 -331 207 -473 18 -44 36 -85
40 -90 7 -10 2512 -15 2522 -5 3 3 -3 23 -14 45 -10 22 -44 101 -75 175 -31
74 -67 160 -81 190 -14 30 -34 75 -45 100 -84 194 -382 805 -491 1005 -70 130
-141 259 -154 280 -7 11 -15 27 -19 35 -15 32 -218 366 -274 452 -33 50 -60
92 -60 94 0 11 -305 422 -329 444 -4 3 -31 34 -61 70 -167 200 -391 383 -556
456 -125 55 -87 54 -1439 53 -1192 0 -1253 -1 -1320 -19z m260 -130 c19 -6 35
-15 35 -18 0 -4 -17 -18 -37 -32 -57 -39 -282 -264 -373 -374 -238 -287 -501
-687 -759 -1156 -195 -355 -543 -1069 -680 -1400 -17 -41 -39 -90 -49 -109
l-17 -34 -222 -1 c-218 -1 -223 -1 -217 19 4 11 48 115 99 230 311 704 666
1374 993 1875 327 502 646 847 887 961 116 55 247 70 340 39z m598 -1 l40 -11
-25 -21 c-14 -12 -50 -42 -79 -67 -29 -25 -55 -45 -58 -45 -9 0 -160 119 -160
126 -1 6 43 19 104 33 29 6 131 -2 178 -15z m595 -2 l42 -12 -61 -50 c-116
-94 -102 -88 -135 -59 -16 14 -53 44 -82 66 -29 23 -51 42 -49 44 2 2 28 10
58 18 60 16 160 13 227 -7z m592 3 c47 -13 49 -20 13 -42 -16 -10 -42 -30 -58
-45 -79 -72 -63 -73 -154 3 -45 37 -79 70 -76 73 3 2 31 10 63 17 63 13 151
10 212 -6z m644 -18 c203 -79 452 -310 722 -672 185 -248 461 -690 644 -1035
23 -44 53 -99 66 -121 30 -52 280 -553 328 -656 20 -43 52 -113 72 -155 70
-148 203 -457 199 -461 -3 -3 -341 -6 -418 -3 -24 1 -31 9 -53 59 -14 31 -29
66 -34 77 -5 11 -36 83 -70 160 -445 1010 -956 1906 -1373 2405 -96 115 -275
295 -347 350 -33 25 -59 48 -60 52 0 4 19 12 43 18 23 6 47 13 52 14 35 12
160 -6 229 -32z m-2188 -110 c58 -42 134 -109 134 -118 0 -3 -22 -29 -49 -57
-214 -226 -514 -658 -772 -1112 -66 -117 -118 -211 -171 -310 -71 -133 -317
-625 -375 -750 -92 -200 -148 -327 -257 -574 l-32 -75 -218 1 c-119 1 -220 4
-223 7 -18 17 394 893 602 1281 188 351 361 646 528 895 65 97 176 255 204
290 6 8 42 53 79 100 87 110 128 155 242 267 101 100 218 193 242 193 8 -1 38
-17 66 -38z m582 11 c64 -49 75 -57 114 -93 l38 -35 -42 -46 c-64 -69 -143
-161 -146 -170 -7 -18 -28 -8 -49 24 -13 17 -56 68 -98 112 l-74 80 37 34 c59
54 153 121 169 121 8 0 31 -12 51 -27z m619 -18 c113 -88 129 -103 118 -118
-22 -32 -189 -217 -195 -217 -4 0 -28 26 -53 58 -25 31 -69 82 -97 112 l-51
55 53 48 c61 55 135 107 155 107 7 0 39 -20 70 -45z m629 -26 c345 -276 743
-840 1206 -1709 223 -418 602 -1235 580 -1249 -8 -5 -311 -6 -418 -2 -18 1
-33 28 -89 159 -188 434 -469 1012 -665 1367 -65 119 -193 341 -211 367 -11
14 -19 29 -19 32 0 3 -28 49 -62 103 -203 323 -415 612 -568 776 -30 32 -57
63 -59 68 -6 18 170 159 199 159 9 0 57 -32 106 -71z m-1545 -231 c180 -206
170 -185 116 -255 -62 -81 -240 -346 -323 -483 -268 -438 -573 -1026 -831
-1600 -36 -80 -76 -169 -89 -198 -13 -29 -24 -55 -24 -57 0 -3 -14 -35 -30
-72 l-30 -68 -221 2 c-121 0 -222 3 -224 5 -4 4 98 241 214 493 96 207 323
664 418 840 60 109 211 378 233 415 5 8 51 83 101 165 153 250 286 445 431
628 84 107 198 237 207 237 4 0 27 -24 52 -52z m616 -25 c37 -43 70 -80 73
-83 3 -3 20 -23 37 -45 l31 -41 -30 -39 c-16 -22 -63 -88 -104 -147 -42 -60
-78 -108 -82 -108 -4 1 -20 22 -37 48 -16 26 -57 84 -90 130 -33 46 -66 91
-73 101 -10 15 -2 30 67 112 121 143 126 148 133 148 3 1 37 -34 75 -76z m554
50 c46 -50 233 -279 284 -349 194 -266 431 -653 665 -1084 62 -115 330 -651
384 -770 93 -203 181 -401 211 -472 28 -67 31 -78 17 -79 -19 -1 -372 -1 -413
0 -22 1 -29 11 -59 84 -42 102 -205 466 -291 647 -68 143 -316 638 -329 655
-4 6 -29 51 -55 100 -170 319 -433 744 -603 974 l-54 73 23 32 c34 47 181 216
188 216 3 0 18 -12 32 -27z m-883 -385 c65 -88 172 -249 172 -259 0 -7 -56
-101 -125 -209 -34 -53 -164 -281 -228 -400 -31 -58 -76 -143 -102 -190 -74
-139 -292 -582 -377 -770 -44 -96 -96 -208 -114 -248 -19 -41 -34 -76 -34 -79
0 -2 -13 -32 -28 -66 -16 -34 -36 -82 -46 -107 l-17 -45 -220 1 c-121 1 -222
4 -225 7 -3 2 33 92 80 199 229 524 574 1202 824 1618 136 227 383 600 397
600 3 0 22 -24 43 -52z m614 -25 c189 -266 438 -677 634 -1047 68 -126 324
-641 367 -736 14 -30 42 -91 62 -135 83 -177 185 -418 180 -423 -4 -4 -333 -6
-428 -3 -11 1 -24 15 -33 39 -133 322 -467 1029 -621 1312 -17 30 -49 91 -73
135 -69 129 -227 401 -290 502 -32 51 -61 102 -65 113 -4 14 14 49 68 127 122
178 132 192 138 193 3 0 31 -35 61 -77z"/>
<path d="M78 3450 l-78 -5 104 -240 c166 -385 225 -514 402 -870 456 -922 853
-1536 1239 -1920 187 -186 333 -288 487 -339 65 -21 157 -35 164 -24 3 4 10 5
16 2 19 -12 2429 -7 2483 6 179 41 352 155 565 370 306 309 633 789 1000 1470
68 126 350 685 350 694 0 2 24 55 54 117 97 204 171 370 272 612 l53 127 -405
0 c-222 1 -744 1 -1159 1 -415 0 -802 0 -859 -1 l-104 0 -58 -137 c-198 -472
-537 -1170 -734 -1513 -21 -36 -46 -81 -56 -100 -11 -19 -64 -110 -119 -202
l-99 -167 -39 61 c-55 88 -254 432 -327 568 -188 350 -526 1059 -665 1398 -36
88 -39 92 -69 92 -303 4 -2363 4 -2418 0z m656 -325 c45 -104 93 -212 106
-240 12 -27 49 -106 80 -175 175 -381 374 -765 635 -1223 127 -223 416 -652
534 -793 14 -17 35 -42 45 -55 89 -112 254 -281 359 -366 37 -31 65 -58 62
-62 -17 -17 -98 -30 -170 -27 -239 9 -513 228 -858 683 -382 505 -894 1440
-1278 2331 -27 63 -49 116 -49 118 0 2 102 3 226 2 l226 -3 82 -190z m536 138
c24 -59 133 -307 174 -397 29 -62 75 -161 133 -286 276 -589 633 -1222 919
-1631 92 -131 281 -371 358 -454 25 -27 46 -53 46 -56 0 -8 -101 -91 -168
-138 l-32 -23 -67 48 c-85 61 -278 251 -378 373 -161 197 -301 396 -490 701
-237 380 -626 1128 -835 1605 -84 191 -130 299 -130 306 0 5 100 9 223 9 l223
0 24 -57z m664 -158 c237 -540 521 -1112 765 -1535 17 -30 35 -62 40 -70 111
-184 154 -253 252 -400 64 -96 139 -206 168 -245 28 -38 51 -72 51 -75 0 -3
-10 -16 -22 -30 -13 -14 -39 -45 -60 -70 -20 -25 -56 -67 -81 -95 l-45 -50
-32 30 c-18 17 -69 75 -115 130 -393 478 -828 1223 -1266 2173 -55 118 -99
216 -99 218 0 2 -11 28 -25 58 -14 30 -29 65 -34 78 -5 13 -16 40 -25 61 l-16
37 226 -2 226 -3 92 -210z m551 103 c224 -526 572 -1230 807 -1631 23 -40 46
-81 52 -92 6 -11 47 -78 90 -149 72 -116 78 -130 66 -150 -11 -18 -170 -250
-193 -281 -6 -9 -23 6 -66 60 -24 31 -217 326 -278 425 -73 119 -253 428 -253
435 0 2 -15 30 -34 62 -101 176 -370 713 -504 1008 -102 225 -182 410 -182
419 0 4 101 6 224 6 l223 0 48 -112z m2715 107 c0 -10 -143 -337 -226 -515
-61 -131 -349 -709 -404 -810 -119 -218 -153 -278 -233 -415 -66 -113 -262
-428 -279 -450 -5 -5 -42 -58 -83 -117 -42 -60 -79 -108 -83 -108 -19 1 -215
297 -208 315 3 8 43 77 89 152 225 371 495 884 712 1353 37 80 80 173 96 207
16 34 29 64 29 67 0 2 13 33 29 68 37 81 87 196 100 231 l11 27 225 0 c124 0
225 -2 225 -5z m568 -67 c-301 -712 -712 -1501 -1064 -2044 -201 -312 -493
-678 -523 -660 -17 11 -201 227 -201 237 0 4 17 29 37 56 106 139 342 506 484
753 30 52 59 103 64 112 11 18 30 55 139 258 68 126 298 589 376 755 49 105
218 489 246 557 l19 48 227 0 227 0 -31 -72z m616 50 c-10 -33 -136 -320 -200
-455 -30 -63 -54 -117 -54 -120 0 -7 -286 -577 -342 -683 -374 -703 -715
-1212 -1019 -1521 -106 -109 -187 -179 -248 -216 l-35 -22 -30 21 c-62 43
-166 129 -166 138 0 5 8 17 18 27 10 10 49 54 87 98 37 44 77 91 89 105 39 45
221 293 282 385 118 175 393 632 437 725 4 8 37 69 73 135 75 137 372 735 432
870 22 50 56 124 74 165 19 41 63 141 98 223 l64 147 224 0 223 0 -7 -22z
m597 0 c-111 -283 -494 -1079 -672 -1398 -14 -25 -41 -72 -59 -105 -31 -57
-177 -307 -203 -349 -7 -11 -43 -69 -81 -130 -97 -157 -324 -486 -356 -516 -3
-3 -21 -25 -40 -50 -97 -128 -260 -296 -385 -396 -188 -151 -361 -202 -527
-154 l-38 11 58 46 c94 77 253 233 318 313 16 19 31 37 35 40 12 11 159 200
220 285 184 255 407 621 608 995 113 209 376 742 472 955 17 39 44 99 61 134
16 36 54 123 85 195 30 72 57 134 60 139 2 4 105 7 228 7 l225 0 -9 -22z
m-3266 -2386 l94 -132 -27 -32 c-44 -54 -75 -90 -113 -132 -20 -23 -44 -51
-54 -63 l-19 -22 -34 37 c-19 20 -67 77 -108 125 l-75 89 32 41 c17 23 65 91
107 151 70 101 77 108 89 90 8 -10 56 -79 108 -152z m-378 -286 c18 -23 62
-74 98 -112 35 -38 64 -71 64 -74 0 -7 -137 -117 -176 -141 l-31 -20 -69 52
c-37 28 -82 65 -100 82 l-32 30 39 41 c63 67 84 90 124 139 21 26 41 47 45 47
3 0 21 -20 38 -44z m620 -28 c33 -40 77 -90 97 -110 20 -20 36 -41 36 -46 0
-11 -36 -43 -124 -110 -68 -52 -69 -53 -95 -36 -26 17 -103 75 -155 118 l-29
24 94 107 c52 58 96 110 97 116 7 18 18 9 79 -63z m-858 -333 l63 -50 -34 -13
c-47 -20 -164 -25 -227 -10 -30 7 -54 17 -53 21 0 5 34 37 74 71 70 61 74 63
94 47 11 -9 49 -38 83 -66z m551 35 c3 -3 29 -24 58 -47 l53 -42 -43 -13 c-59
-17 -214 -16 -255 3 l-32 14 82 66 82 66 25 -21 c14 -11 27 -23 30 -26z m563
29 c12 -11 48 -42 80 -67 32 -25 54 -49 50 -52 -14 -13 -100 -30 -147 -30 -50
0 -147 18 -159 30 -4 4 16 25 45 48 30 23 64 53 78 67 28 30 26 30 53 4z"/>
</g>
</svg>
